<svg xmlns="http://www.w3.org/2000/svg" width="600" height="700" viewBox="0 0 600 700" version="1.1"><path d="M 201.514 12.977 C 201.182 13.514, 201.340 15.652, 201.864 17.727 C 202.389 19.802, 203.109 33.425, 203.465 48 C 204.133 75.393, 205.963 92.991, 208.755 98.888 L 210.359 102.275 212.262 99.925 C 213.643 98.219, 213.988 96.742, 213.520 94.537 C 213.166 92.867, 212.623 89.207, 212.314 86.405 L 211.752 81.310 215.028 81.791 C 218.078 82.238, 218.259 82.107, 217.652 79.886 C 215.369 71.540, 215.519 70.826, 221.261 62.783 C 222.884 60.511, 222.903 59.976, 221.501 56.002 C 220.664 53.629, 220.187 51.479, 220.443 51.224 C 221.629 50.037, 225.695 52.214, 227.269 54.879 C 229.181 58.114, 245.383 77.412, 253.138 85.690 C 255.812 88.545, 258.016 91.470, 258.036 92.190 C 258.098 94.466, 262.297 98.490, 268.328 102.055 C 275.265 106.155, 288 118.104, 288 120.511 C 288 122.098, 284.555 120.276, 277.567 114.995 C 273.204 111.698, 269.248 109, 268.777 109 C 268.306 109, 264.799 106.068, 260.983 102.484 C 257.167 98.900, 253.022 95.592, 251.772 95.133 C 248.712 94.010, 234.148 94.470, 230.877 95.793 C 229.434 96.377, 227.201 98.575, 225.914 100.677 C 224.627 102.780, 222.972 105.119, 222.234 105.875 C 221.497 106.631, 221.030 108.206, 221.197 109.375 C 221.469 111.280, 222.298 111.552, 229.204 112 C 243.060 112.899, 242.166 116.482, 227.224 119.930 C 217.693 122.130, 202.951 128.528, 194.997 133.917 C 192.524 135.593, 189.938 136.972, 189.250 136.982 C 186.847 137.017, 188.360 131.497, 191.658 128.199 C 192.396 127.461, 193 126.439, 193 125.929 C 193 123.724, 190.321 125.361, 186.070 130.162 C 169.077 149.354, 165.600 152.705, 151.465 163.500 C 137.450 174.204, 128.192 182.884, 119.997 193.003 C 105.226 211.243, 98.964 221.726, 89.830 243.500 C 82.565 260.821, 79.784 270.670, 78.537 283.500 C 78.162 287.350, 77.213 293.340, 76.428 296.812 C 74.751 304.227, 74.608 308, 76.004 308 C 77.640 308, 89.069 291.993, 92.068 285.500 C 93.856 281.629, 95.600 274.887, 96.983 266.500 C 101.047 241.861, 104.298 230.168, 109.079 223 C 109.996 221.625, 112.170 217.800, 113.911 214.500 C 116.977 208.685, 120.305 203.637, 123.804 199.491 C 124.737 198.387, 127.719 194.868, 130.430 191.672 C 135.291 185.944, 147.295 175.176, 160 165.145 C 172.792 155.046, 179.017 149.521, 179.572 147.774 C 179.882 146.797, 181.066 145.500, 182.203 144.891 C 184.099 143.876, 184.217 144.001, 183.616 146.392 C 182.995 148.868, 183.159 149, 186.859 149 C 189.697 149, 191.131 149.565, 192.137 151.080 L 193.519 153.161 199.009 150.982 C 207.721 147.526, 226 147.802, 226 151.390 C 226 152.272, 224.173 152.969, 220.750 153.395 C 217.863 153.753, 211.370 155.448, 206.323 157.161 C 198.961 159.660, 196.321 161.116, 192.979 164.521 C 190.688 166.856, 189.212 169.013, 189.701 169.315 C 190.189 169.617, 192.559 168.982, 194.967 167.903 C 197.376 166.825, 202.081 165.513, 205.423 164.988 C 208.765 164.463, 213.922 163.361, 216.882 162.539 C 219.842 161.717, 222.668 161.295, 223.162 161.600 C 223.657 161.906, 223.763 163.749, 223.397 165.696 L 222.733 169.236 227.117 168.497 C 229.527 168.091, 235.100 167.701, 239.500 167.630 C 246.871 167.510, 247.972 167.767, 253.500 170.895 C 262.178 175.806, 265.540 178.598, 269.728 184.372 C 271.773 187.192, 274.249 190.090, 275.229 190.811 C 277.853 192.740, 280.257 197.826, 281.228 203.500 C 281.698 206.250, 282.347 210.031, 282.669 211.901 L 283.254 215.303 279.484 214.691 C 277.410 214.355, 274.653 213.083, 273.357 211.865 C 270.154 208.856, 270.348 211.278, 273.657 215.617 C 277.195 220.255, 280.731 222.080, 283.627 220.760 C 285.084 220.096, 286.814 220.083, 288.672 220.722 C 290.227 221.257, 292.063 221.500, 292.750 221.264 C 294.681 220.599, 294.228 216.517, 292 214.500 C 290.900 213.505, 290 212.267, 290 211.749 C 290 211.232, 289.070 209.503, 287.933 207.906 C 285.280 204.181, 285.607 199.344, 288.477 199.846 C 289.565 200.036, 291.943 201.499, 293.762 203.096 C 297.892 206.722, 299.108 206.722, 303.238 203.096 C 305.057 201.499, 307.435 200.036, 308.523 199.846 C 312.659 199.122, 309.789 208.980, 303.892 215.749 C 302.279 217.602, 301.310 219.644, 301.638 220.499 C 302.330 222.303, 305.310 222.448, 307.939 220.806 C 309.423 219.879, 310.445 219.882, 312.499 220.818 C 316.133 222.473, 320.959 220.109, 324.564 214.908 C 327.638 210.472, 327.161 208.599, 323.746 211.695 C 321.263 213.947, 315.390 215.441, 314.526 214.041 C 314.222 213.550, 314.623 211.202, 315.417 208.824 C 316.211 206.446, 317.186 202.700, 317.582 200.500 C 318.366 196.156, 322.287 190.946, 333 180.015 C 343.225 169.581, 354.280 165.271, 364.250 167.831 C 373.699 170.258, 375.355 170.368, 374.646 168.520 C 374.286 167.582, 373.706 165.678, 373.358 164.289 C 372.746 161.851, 372.859 161.783, 376.612 162.316 C 383.725 163.327, 391.430 165.091, 397.806 167.167 C 404.399 169.314, 406.135 169.059, 404.389 166.202 C 401.559 161.569, 387.455 155.084, 376.259 153.267 C 374.451 152.974, 373 152.137, 373 151.388 C 373 147.892, 389.982 147.571, 397.562 150.925 C 403.320 153.471, 403.526 153.474, 405.979 151.021 C 407.446 149.554, 408.741 149.198, 410.979 149.646 C 414.792 150.408, 415.126 147.963, 411.656 144.702 C 410.366 143.491, 409.033 141.364, 408.693 139.976 C 407.522 135.190, 386.656 123.846, 372.098 120.081 C 362.335 117.555, 360 116.475, 360 114.484 C 360 112.493, 364.157 111.630, 370.011 112.407 C 374.467 112.998, 375.063 112.834, 376.516 110.616 C 378.062 108.257, 377.964 107.976, 373.631 102.277 C 368.842 95.980, 363.931 93.340, 360.539 95.238 C 359.394 95.879, 357.403 95.813, 354.650 95.042 C 349.225 93.523, 344.172 95.670, 337.521 102.321 C 334.896 104.946, 330.667 108.159, 328.124 109.460 C 325.581 110.761, 320.858 113.890, 317.630 116.413 C 311.619 121.110, 310 121.846, 310 119.882 C 310 116.749, 323.585 104.828, 332.147 100.448 C 335.492 98.737, 337.593 96.692, 339.647 93.150 C 341.216 90.444, 347.467 82.666, 353.537 75.865 C 359.607 69.064, 365.977 61.475, 367.691 59 C 371.992 52.792, 377.602 47.546, 378.458 48.931 C 378.833 49.539, 378.209 51.544, 377.070 53.386 C 374.428 57.662, 374.439 61.182, 377.102 63.593 C 380.519 66.685, 381.973 70.393, 381.327 74.370 C 380.736 78.012, 381.637 78.963, 383.713 76.887 C 387.272 73.328, 388.124 82.073, 384.993 90.017 C 383.450 93.934, 383.235 95.570, 384.061 97.114 C 385.644 100.072, 388.297 99.003, 389.322 94.993 C 389.814 93.072, 390.895 89.700, 391.725 87.500 C 392.749 84.788, 393.508 77.061, 394.081 63.500 C 394.546 52.500, 395.394 36.563, 395.964 28.084 C 396.535 19.606, 396.811 12.477, 396.577 12.243 C 395.584 11.251, 392.222 13.218, 391.245 15.362 C 390.009 18.075, 383.172 23.700, 366.500 35.721 C 359.900 40.481, 351.825 46.348, 348.555 48.759 C 345.285 51.171, 340.560 54.318, 338.055 55.752 C 329.996 60.365, 320.695 67.929, 312.785 76.303 C 306.715 82.727, 304.809 84.209, 303.850 83.250 C 301.549 80.949, 306.658 73.103, 317.826 61.783 C 323.642 55.889, 328.089 50.756, 327.710 50.377 C 327.331 49.997, 325.212 50.503, 323.001 51.499 C 318.560 53.502, 302.521 68.784, 301.507 71.979 C 300.511 75.117, 297.428 74.447, 295.901 70.761 C 295.163 68.979, 291.775 64.817, 288.372 61.511 C 281.785 55.112, 270 47.853, 270 50.194 C 270 50.926, 273.974 55.390, 278.831 60.116 C 288.675 69.695, 294 76.867, 294 80.550 C 294 84.550, 291.423 83.434, 286.282 77.208 C 280.990 70.797, 274.692 65.736, 259 55.280 C 227.572 34.340, 214.261 23.801, 205.910 13.250 C 204.730 11.759, 202.358 11.611, 201.514 12.977 M 332.925 26.926 C 327.574 30.470, 323.396 34.729, 324.342 35.675 C 325.737 37.071, 339.500 28.209, 339.500 25.915 C 339.500 23.622, 337.435 23.939, 332.925 26.926 M 231.131 53.750 C 232.508 55.263, 234.342 57.625, 235.204 59 C 237.477 62.621, 251.619 77.592, 255.127 80.090 C 256.770 81.261, 258.375 81.958, 258.693 81.640 C 260.853 79.480, 233.876 51, 229.669 51 C 229.095 51, 229.753 52.237, 231.131 53.750 M 357.624 58.250 C 343.681 72.322, 339.599 78, 343.427 78 C 345.921 78, 365 57.187, 365 54.467 C 365 51.839, 362.920 52.906, 357.624 58.250 M 338.876 64.703 C 334.643 68.194, 333.072 70.122, 333.032 71.872 C 332.986 73.867, 336.669 71.254, 340.396 66.649 C 344.104 62.068, 343.306 61.047, 338.876 64.703 M 255.895 64.750 C 257.532 67.718, 271.900 81.433, 272.619 80.714 C 273.208 80.125, 270.847 76.201, 266.729 70.925 C 265.181 68.941, 256.999 63, 255.815 63 C 255.328 63, 255.364 63.788, 255.895 64.750 M 136.667 72.667 C 135.009 74.325, 136.351 75.838, 140.514 77.004 C 149.964 79.650, 154.528 89.463, 152.561 102.905 C 150.929 114.058, 145.405 127.024, 138.463 136 C 132.085 144.246, 130.052 145.905, 114.750 155.349 C 111.021 157.650, 111.001 160.468, 114.721 159.534 C 119.503 158.334, 129.285 152.286, 136.575 146.024 C 149.552 134.877, 159.240 114.425, 159.326 98 C 159.361 91.210, 158.940 88.672, 157.233 85.384 C 154.367 79.863, 150.376 75.246, 146.931 73.464 C 144.021 71.960, 137.853 71.480, 136.667 72.667 M 444.823 76.750 C 440.384 81.395, 437 90.340, 437 97.428 C 437 105.060, 441.484 121.303, 445.809 129.335 C 447.839 133.105, 451.884 138.829, 454.797 142.054 C 460.957 148.874, 474.046 158, 477.667 158 C 481.365 158, 480.141 156.052, 473.646 151.598 C 466.275 146.544, 456.243 135.871, 452.361 128.955 C 448.381 121.865, 446.371 115.436, 444.920 105.158 C 443.060 91.975, 444.641 84.450, 450.505 78.586 C 453.664 75.426, 453.751 73, 450.703 73 C 449.352 73, 446.930 74.545, 444.823 76.750 M 174 108.943 C 169.367 111.398, 165 115.527, 165 117.452 C 165 119.723, 166.516 119.355, 170.215 116.186 C 172.022 114.639, 174.963 112.358, 176.750 111.118 C 182.429 107.179, 180.383 105.561, 174 108.943 M 247 117.550 C 247 119.732, 250.476 123.899, 253.902 125.825 C 260.327 129.436, 259.087 133.440, 252.515 130.306 C 249.603 128.917, 248.560 128.817, 247.196 129.795 C 243.887 132.170, 242.873 132.229, 240.684 130.173 C 238.041 127.689, 236.725 128.339, 235.164 132.899 C 233.376 138.121, 233.662 139.997, 236.250 140.017 C 240.907 140.053, 252.036 142.958, 257.663 145.606 C 261.961 147.629, 266.136 151.046, 273.500 158.570 C 279 164.189, 284.267 170.185, 285.203 171.894 C 286.140 173.602, 287.535 175, 288.303 175 C 290.879 175, 289.751 158.651, 286.682 151.500 C 283.098 143.150, 277.333 137.027, 259.747 122.890 C 254.319 118.527, 247 115.461, 247 117.550 M 345.500 118.389 C 343.850 119.110, 341.150 120.792, 339.500 122.128 C 337.850 123.463, 334.543 125.873, 332.151 127.482 C 326.006 131.618, 316.676 142.114, 313.668 148.275 C 307.437 161.039, 305.951 166.551, 308.149 168.749 C 309.830 170.430, 314.610 167.692, 315.385 164.602 C 315.726 163.244, 317.016 161.816, 318.252 161.428 C 319.489 161.041, 323.016 158.423, 326.092 155.612 C 336.434 146.157, 345.625 141.939, 359.250 140.394 C 362.413 140.035, 365 139.597, 365 139.420 C 365 136.734, 362.485 128.818, 361.326 127.856 C 360.033 126.782, 359.373 127.089, 357.145 129.800 C 354.020 133.603, 353.372 133.698, 350.294 130.806 C 348.211 128.850, 347.603 128.742, 344.659 129.806 C 340.429 131.336, 340 131.310, 340 129.520 C 340 128.707, 341.785 127.130, 343.967 126.017 C 347.959 123.980, 350 121.460, 350 118.566 C 350 116.695, 349.430 116.672, 345.500 118.389 M 406 126.961 C 406 129.174, 412.904 141.067, 416.047 144.269 C 417.946 146.203, 422.200 150.734, 425.500 154.338 C 428.800 157.942, 437.903 166.773, 445.729 173.963 C 469.030 195.371, 478.662 207.278, 488.402 226.717 C 493.888 237.666, 495.806 244.153, 499.570 264.500 C 502.627 281.024, 505.617 287.854, 515.796 301.562 C 521.547 309.307, 521.720 308.689, 519.476 288.441 C 517.164 267.592, 515.608 262.732, 502.447 235.245 C 494.832 219.342, 485.637 205.091, 476.651 195.267 C 473.750 192.095, 469.963 187.915, 468.235 185.978 C 466.508 184.041, 460.476 178.416, 454.832 173.478 C 438.688 159.353, 425.440 146.240, 417.865 136.885 C 411.617 129.170, 406 124.472, 406 126.961 M 336.750 155.080 C 334.913 156.150, 334.368 158, 335.889 158 C 336.378 158, 337.841 157.115, 339.139 156.033 C 341.704 153.897, 339.969 153.205, 336.750 155.080 M 242.403 177.843 C 242.689 178.307, 246.428 180.738, 250.712 183.245 C 258.764 187.960, 262.572 191.189, 269.614 199.276 C 274.049 204.370, 276 205.190, 276 201.960 C 276 198.143, 272.239 192.342, 268.857 190.941 C 267.070 190.201, 264.234 188.408, 262.554 186.957 C 255.977 181.275, 248.527 177, 245.204 177 C 243.377 177, 242.116 177.379, 242.403 177.843 M 348.823 177.868 C 347.350 178.216, 343.129 180.750, 339.444 183.500 C 335.758 186.250, 331.148 189.475, 329.200 190.667 C 327.253 191.859, 325.077 193.884, 324.365 195.167 C 322.999 197.630, 322.528 203, 323.678 203 C 324.051 203, 327.988 199.382, 332.428 194.960 C 336.868 190.538, 343.391 185.250, 346.925 183.210 C 355.527 178.243, 356.286 176.108, 348.823 177.868 M 88.668 186.750 C 78.374 197.553, 66.637 214.567, 64.529 221.744 C 63.258 226.067, 66.618 223.071, 71.875 215.193 C 74.698 210.962, 77.783 206.375, 78.730 205 C 79.677 203.625, 84.175 198.338, 88.726 193.252 C 93.277 188.165, 97 183.553, 97 183.002 C 97 180.523, 92.802 182.412, 88.668 186.750 M 499 182.865 C 499 183.914, 502.745 188.881, 505.237 191.137 C 508.510 194.099, 519.558 207.802, 520.994 210.680 C 522.844 214.385, 528.314 221.930, 529.180 221.969 C 530.565 222.032, 524.637 209.278, 520.217 202.686 C 511.987 190.412, 499 178.279, 499 182.865 M 223 183.711 C 222.175 184.040, 217.053 186.489, 211.617 189.154 C 206.181 191.819, 201.334 194, 200.845 194 C 200.356 194, 196.097 195.800, 191.379 198 C 186.661 200.200, 182.457 202, 182.037 202 C 181.617 202, 172.685 206.068, 162.189 211.040 C 146.126 218.649, 141.726 220.303, 134.388 221.491 C 124.757 223.049, 114.719 226.658, 115.286 228.357 C 115.509 229.027, 117.363 229.268, 120.075 228.979 C 122.509 228.721, 127.277 228.507, 130.671 228.504 C 135.839 228.501, 137.263 228.896, 139.436 230.938 L 142.030 233.377 141.982 343.766 L 141.935 454.156 139.601 456.328 C 134.883 460.719, 129.144 464.957, 124.966 467.135 C 120.221 469.608, 111.497 478.052, 108.693 482.886 C 105.856 487.778, 108.812 486.794, 113.609 481.250 C 116.039 478.441, 121.148 474.512, 126.109 471.636 C 130.724 468.961, 135.834 465.838, 137.465 464.697 C 139.095 463.556, 146.745 459.496, 154.465 455.675 C 162.184 451.854, 169.573 447.888, 170.885 446.864 C 175.572 443.201, 185.072 444.741, 198.853 451.397 C 205.911 454.806, 226.432 475.779, 238 491.404 C 239.925 494.004, 243.899 498.899, 246.831 502.282 C 253.586 510.077, 254.570 511.844, 252.579 512.608 C 249.653 513.731, 244.798 509.446, 226.500 489.595 C 222.100 484.821, 215.125 478.091, 211 474.640 C 190.900 457.821, 181.535 454.681, 195.763 469.532 C 199.468 473.399, 204.075 478.719, 206 481.353 C 215.174 493.907, 221.274 501.021, 227.842 506.826 C 234.870 513.037, 236.274 515.297, 233.713 516.280 C 231.911 516.971, 228.228 515.141, 222.449 510.683 C 219.727 508.583, 212.274 502.958, 205.886 498.183 C 199.499 493.407, 191.624 487.363, 188.386 484.751 C 182.514 480.012, 180 478.943, 180 481.184 C 180 482.901, 199.452 501.837, 206.500 506.981 C 209.800 509.390, 212.725 511.670, 213 512.049 C 213.727 513.050, 230.848 523.993, 237.131 527.473 C 248.241 533.627, 267.747 540.850, 278.739 542.882 C 298.543 546.542, 302.662 547, 315.615 546.983 C 330.560 546.963, 341.118 544.761, 346.011 540.644 C 347.687 539.234, 350.729 537.766, 352.769 537.383 C 354.810 537.001, 358.284 535.868, 360.490 534.866 C 362.695 533.864, 366.166 533.034, 368.201 533.022 C 379.135 532.957, 393.989 525.380, 413 510.172 C 425.420 500.236, 431.181 493.848, 428.959 492.475 C 427.816 491.768, 427.170 492.204, 418.929 499.235 C 406.190 510.104, 387.052 522.870, 381 524.537 C 378.525 525.218, 375.785 526.072, 374.910 526.433 C 373.998 526.811, 372.774 526.432, 372.038 525.546 C 370.418 523.594, 365.288 523.572, 358.654 525.490 C 355.413 526.426, 348.119 527.076, 339 527.240 C 325.305 527.486, 324.500 527.394, 324.500 525.591 C 324.500 524.037, 326.734 522.947, 336.500 519.736 C 343.100 517.566, 350.009 515.148, 351.854 514.362 C 353.699 513.576, 357.287 512.648, 359.828 512.300 C 363.293 511.825, 365.234 510.834, 367.589 508.337 C 369.317 506.505, 372.596 504.348, 374.876 503.544 C 380.159 501.680, 387.557 496.606, 389.651 493.410 C 392.623 488.874, 391.800 489.045, 374.146 496.626 C 367.997 499.267, 346.615 503.906, 337.468 504.584 C 319.627 505.907, 307.984 502.337, 291.756 490.569 C 285.874 486.303, 280.592 482.969, 280.018 483.161 C 279.444 483.352, 283.031 487.499, 287.988 492.378 C 292.944 497.256, 297 501.647, 297 502.137 C 297 502.945, 292.140 501.308, 288.593 499.305 C 280.784 494.896, 256.495 467.986, 249.606 456.110 C 244.871 447.949, 239.521 434.722, 236.821 424.500 C 233.906 413.469, 233.219 395.597, 235.385 387.143 C 236.273 383.676, 237 380.132, 237 379.269 C 237 378.406, 238.238 375.252, 239.750 372.260 C 242.314 367.189, 245.734 363.411, 257 353.201 C 260.659 349.884, 261.261 348.882, 260.222 347.834 C 259.201 346.803, 258.600 346.794, 257.222 347.787 C 256.275 348.470, 254.150 349.866, 252.500 350.890 C 238.999 359.266, 223.726 379.385, 226.078 385.697 C 226.528 386.905, 226.838 393.205, 226.768 399.697 C 226.685 407.276, 227.232 414.363, 228.295 419.500 C 230.004 427.753, 237.014 447.802, 239.559 451.715 C 240.352 452.933, 241 455.028, 241 456.371 C 241 460.010, 237.383 458.640, 235.064 454.123 C 234.041 452.131, 232.022 448.265, 230.578 445.533 C 229.134 442.801, 226.594 436.164, 224.933 430.783 C 223.273 425.402, 221.435 421, 220.849 421 C 220.211 421, 220.035 422.005, 220.411 423.501 C 220.756 424.876, 221.315 428.021, 221.654 430.490 C 221.992 432.958, 222.883 435.488, 223.634 436.112 C 224.385 436.735, 225.003 437.977, 225.006 438.872 C 225.010 439.768, 225.733 441.850, 226.615 443.500 C 227.496 445.150, 228.564 447.657, 228.988 449.072 C 229.412 450.487, 231.197 453.637, 232.955 456.072 C 234.713 458.507, 240.226 466.800, 245.206 474.500 C 250.186 482.200, 256.114 490.741, 258.380 493.480 C 263.230 499.343, 275.122 511.171, 279.750 514.735 C 283.251 517.430, 284.025 520, 281.338 520 C 279.307 520, 271.559 515.160, 263.500 508.858 C 257.407 504.093, 246.315 492.498, 239.340 483.602 C 229.507 471.060, 209.236 452, 205.730 452 C 205.252 452, 202.898 450.650, 200.500 449 C 198.102 447.350, 195.642 446, 195.035 446 C 194.427 446, 192.830 445.279, 191.485 444.398 C 190.141 443.517, 187.119 442.370, 184.770 441.849 C 182.422 441.328, 178.813 439.792, 176.750 438.437 L 173 435.972 173 348.052 L 173 260.133 175.712 259.816 C 178.054 259.543, 179.105 258.134, 183.404 249.500 C 186.143 244, 188.635 237.475, 188.942 235 C 189.691 228.964, 192.620 228.740, 195.489 234.500 C 196.584 236.700, 198.898 240.975, 200.629 244 C 205.909 253.225, 231.046 301.499, 243.141 325.642 C 249.472 338.279, 252.924 344.100, 254.515 344.825 C 255.772 345.398, 257.070 345.596, 257.400 345.266 C 258.400 344.267, 258.071 338.162, 256.981 337.488 C 255.121 336.339, 251 327.114, 251 324.101 C 251 321.918, 251.584 320.949, 253.212 320.433 C 254.429 320.047, 256.261 318.666, 257.285 317.365 C 260.008 313.903, 263.411 314.310, 265.939 318.401 C 267.095 320.271, 268.615 322.022, 269.317 322.291 C 270.414 322.712, 275.292 330.762, 283.988 346.500 C 285.203 348.700, 287.166 352.067, 288.349 353.982 C 289.532 355.896, 291.639 359.718, 293.032 362.474 C 296.278 368.897, 298.287 369.318, 300.933 364.131 C 302.054 361.934, 303.438 359.847, 304.009 359.494 C 304.580 359.142, 306.345 355.989, 307.932 352.489 C 309.519 348.989, 312.144 344.184, 313.764 341.813 C 315.385 339.441, 317.249 335.848, 317.907 333.830 C 318.564 331.811, 319.787 329.592, 320.624 328.897 C 321.461 328.202, 323.477 324.699, 325.103 321.113 C 326.729 317.526, 328.668 313.896, 329.412 313.046 C 330.155 312.196, 331.094 310.375, 331.498 309 C 331.902 307.625, 334.010 304.767, 336.182 302.649 C 339.889 299.036, 340.214 298.911, 341.466 300.623 C 342.576 302.141, 342.577 302.766, 341.471 304.345 C 339.941 306.530, 340.727 309.358, 344.150 313.989 L 346.339 316.950 342.669 324.769 C 340.651 329.070, 339 333.048, 339 333.610 C 339 334.632, 336.289 340.074, 321.369 369 C 298.203 413.916, 298.226 413.876, 296.088 412.554 C 295.480 412.179, 293.394 408.638, 291.453 404.686 C 284.496 390.526, 272.858 368.396, 269.400 362.750 C 267.065 358.938, 265.224 357, 263.939 357 C 262.872 357, 262 357.445, 262 357.989 C 262 359.088, 266.890 369.101, 275.192 385 C 278.208 390.775, 283.942 401.800, 287.934 409.500 C 291.927 417.200, 295.589 423.917, 296.073 424.426 C 297.352 425.773, 300.769 422.329, 301.512 418.943 C 301.857 417.376, 302.969 415.037, 303.985 413.746 C 305.001 412.455, 307.368 408.271, 309.246 404.449 C 312.971 396.868, 326.061 371.511, 333.226 358 C 335.704 353.325, 342.127 340.950, 347.497 330.500 C 352.868 320.050, 359.980 306.325, 363.303 300 C 371.431 284.527, 376.909 274.012, 380.400 267.188 C 381.995 264.070, 383.505 259.701, 383.755 257.479 C 384.714 248.973, 378.268 241.306, 371.258 242.615 C 369.474 242.947, 367.353 242.966, 366.544 242.655 C 362.511 241.108, 371.165 230.973, 376.482 231.016 C 379.660 231.042, 386.019 235.139, 389.405 239.341 L 392.500 243.182 393 281.341 C 393.279 302.615, 393.079 323.371, 392.548 328.248 C 391.843 334.731, 391.901 337.301, 392.775 338.175 C 394.640 340.040, 398 336.370, 398 332.467 C 398 328.960, 399.941 326.636, 402.123 327.529 C 402.880 327.839, 404.749 330.659, 406.276 333.796 C 407.802 336.933, 411.269 343.100, 413.980 347.500 C 416.691 351.900, 420.183 357.975, 421.741 361 C 423.298 364.025, 425.751 368.525, 427.191 371 C 434.976 384.378, 441.056 404.654, 441.733 419.500 C 442.010 425.550, 442.578 431.134, 442.997 431.910 C 444.157 434.058, 446.111 429.822, 448.030 421 C 449.625 413.665, 449.728 413.500, 452.707 413.500 C 454.746 413.500, 456.427 412.673, 457.792 411 L 459.831 408.500 460.329 411 C 461.957 419.184, 463.743 453.444, 463.103 464.250 C 462.961 466.664, 458.218 466.518, 455 464 C 453.625 462.924, 452.168 462.034, 451.763 462.022 C 451.358 462.010, 445.846 459.556, 439.513 456.569 C 427.012 450.673, 426.317 449.789, 430.376 444.965 C 437.368 436.655, 433.276 403.808, 422.509 381.814 C 415.129 366.739, 412.464 362.467, 408.823 359.874 L 405.770 357.700 406.465 360.100 C 406.847 361.420, 408.668 365.650, 410.512 369.500 C 414.805 378.464, 418.512 386.930, 421.461 394.500 C 424.517 402.344, 428 422.533, 428 432.398 C 428 439.938, 427.886 440.314, 424.600 443.600 C 422.730 445.470, 420.488 447, 419.618 447 C 417.481 447, 401.453 439.542, 400.590 438.146 C 399.679 436.672, 399.567 356.987, 400.473 354.798 C 401.404 352.548, 400.351 351, 397.890 351 C 396.552 351, 395.409 352.170, 394.408 354.565 C 393.168 357.533, 392.940 364.582, 393.048 396.657 L 393.176 435.184 390.849 437.660 C 389.569 439.023, 385.960 441.503, 382.828 443.172 C 377.167 446.189, 374.637 449, 377.581 449 C 378.416 449, 380.333 448.362, 381.841 447.582 C 383.349 446.803, 387.382 445.586, 390.803 444.880 C 396.807 443.640, 397.208 443.687, 402.262 446.244 C 405.143 447.701, 413.575 451.558, 421 454.814 C 450.377 467.699, 460.714 472.262, 465.661 474.527 C 468.499 475.827, 474.012 479.637, 477.911 482.992 C 481.810 486.348, 485 488.775, 485 488.385 C 485 486.240, 479.374 478.641, 474.986 474.858 L 469.929 470.500 469.557 435.500 C 469.207 402.486, 469.045 399.904, 466.713 390 C 465.354 384.225, 463.255 377.025, 462.050 374 C 458.107 364.103, 446.337 338.907, 435.655 317.500 C 419.667 285.459, 416.287 276.075, 413.445 255.846 C 411.879 244.694, 412.383 239.027, 415.476 233.046 C 417.627 228.887, 423.523 224.180, 427.522 223.430 C 434.460 222.128, 444.543 228.270, 447.641 235.684 C 449.423 239.947, 448.457 241.979, 441.873 247.828 C 436.072 252.980, 435.668 255.739, 439.459 264.312 C 441.986 270.026, 451.199 280.155, 461.686 288.750 C 470.741 296.172, 470.554 296.591, 470.152 269.776 C 469.853 249.823, 469.531 245.823, 467.870 241.381 C 465.239 234.350, 461.095 228.890, 454.788 224.142 C 449.625 220.255, 414.448 202, 412.122 202 C 411.477 202, 407.924 200.484, 404.225 198.631 C 400.526 196.778, 396.375 194.916, 395 194.492 C 393.625 194.069, 387.775 191.481, 382 188.742 C 371.695 183.853, 366.086 182.449, 365.334 184.568 C 365.125 185.156, 367.350 187.286, 370.278 189.302 C 378.086 194.680, 381.603 199.997, 379.044 202.556 C 378.518 203.082, 374.488 210.709, 370.087 219.506 C 365.686 228.303, 361.400 236.625, 360.562 238 C 359.724 239.375, 357.547 243.650, 355.723 247.500 C 351.346 256.741, 331.281 296.808, 329.432 300 C 327.584 303.190, 313.827 328.693, 308.204 339.355 C 297.716 359.238, 297.567 359.309, 291.201 347.500 C 281.494 329.491, 276.808 320.597, 267.493 302.500 C 258.497 285.022, 235.835 241.156, 220.270 211.091 L 213.846 198.683 215.706 196.192 C 216.729 194.822, 220.211 191.846, 223.444 189.580 C 226.677 187.313, 229.263 185.018, 229.192 184.479 C 229.040 183.332, 225.162 182.851, 223 183.711 M 174 184.705 C 170.757 185.889, 158.303 194.572, 153.778 198.804 C 148.988 203.285, 147.734 206, 150.456 206 C 153.691 206, 177 188.337, 177 185.885 C 177 183.940, 176.565 183.769, 174 184.705 M 415 186.022 C 415 186.584, 417.588 188.721, 420.752 190.772 C 423.916 192.822, 428.303 195.824, 430.502 197.443 C 442.670 206.398, 450.083 211.251, 450.681 210.652 C 451.789 209.545, 443.835 200.769, 437.295 195.883 C 425.748 187.256, 415 182.502, 415 186.022 M 458.526 261.500 C 456.460 267.498, 455.983 268.129, 453.992 267.497 C 450.676 266.445, 451.754 269.127, 458.513 278.750 C 462.417 284.308, 464.557 278.970, 461.427 271.480 C 460.562 269.410, 460.069 266.767, 460.332 265.608 C 460.595 264.449, 460.451 262.600, 460.012 261.500 L 459.215 259.500 458.526 261.500 M 106.629 271.250 C 105.269 273.038, 102.106 278.923, 99.600 284.329 C 94.796 294.690, 91.845 299.028, 83.500 308 C 76.001 316.062, 69.635 326.531, 65.456 337.671 C 60.955 349.670, 60.009 354.857, 59.328 371.250 C 58.708 386.204, 60.294 395.323, 65.482 406.622 C 70.637 417.850, 79 429.303, 79 425.135 C 79 424.659, 78.162 423.197, 77.137 421.885 C 74.654 418.705, 71 411.431, 71 409.667 C 71 408.890, 70.017 406.060, 68.815 403.377 C 66.873 399.040, 66.637 396.839, 66.685 383.500 C 66.740 368.594, 66.763 368.444, 70.387 359.582 C 74.483 349.567, 75.846 347.446, 77.272 348.872 C 77.881 349.481, 77.387 352.313, 75.914 356.664 C 73.116 364.927, 72.937 379.023, 75.475 391.260 C 77.244 399.786, 83.095 413.895, 86.700 418.327 L 89 421.153 89 418.607 C 89 417.207, 88.157 414.560, 87.126 412.725 C 86.096 410.890, 84.237 404.932, 82.996 399.484 C 78.299 378.865, 82.502 354.567, 93.718 337.500 C 95.164 335.300, 97.463 331.801, 98.828 329.723 C 100.192 327.646, 103.925 322.984, 107.122 319.362 C 115.777 309.558, 121.116 299.349, 119.623 295.459 C 118.724 293.117, 115.268 295.370, 113.241 299.620 C 111.383 303.518, 100.732 312, 97.696 312 C 95.285 312, 95.531 311.153, 103.350 292.500 C 104.734 289.200, 106.818 283.125, 107.982 279 C 109.146 274.875, 110.354 270.712, 110.666 269.750 C 111.591 266.898, 109.290 267.753, 106.629 271.250 M 489 274.760 C 489 276.370, 489.844 280.120, 490.875 283.093 C 492.764 288.541, 501.140 307.918, 503.089 311.347 C 507.094 318.396, 492.977 309.845, 483.934 299.745 C 476.420 291.352, 473.856 295.422, 480.129 305.785 C 482.207 309.218, 484.564 312.361, 495.549 326.345 C 500.363 332.473, 511 349.831, 511 351.559 C 511 352.226, 512.084 356.086, 513.408 360.136 C 514.733 364.186, 516.088 371.100, 516.421 375.500 C 516.993 383.057, 515.972 399.304, 514.441 407 C 513.815 410.149, 513.901 410.350, 515.299 409 C 517.429 406.944, 520.561 397.078, 522.040 387.767 C 523.598 377.962, 522.850 362.240, 520.469 354.762 C 518.570 348.797, 518.808 347.329, 521.506 348.364 C 527.007 350.475, 533.206 379.275, 531.106 392.962 C 529.161 405.644, 528.885 409, 529.787 409 C 531.148 409, 533.743 402.440, 535.719 394 C 537.845 384.923, 538.045 365.746, 536.122 355.500 C 532.525 336.340, 525.050 320.564, 513.737 308.258 C 506.653 300.552, 502.724 294.697, 496.574 282.684 C 491.137 272.062, 489 269.826, 489 274.760 M 355.628 287.752 C 354.845 289.266, 353.259 291.361, 352.102 292.407 C 350.946 293.454, 350 295.336, 350 296.590 C 350 300.162, 348.200 304, 346.525 304 C 345.686 304, 345 304.675, 345 305.500 C 345 307.555, 346.124 307.387, 350.102 304.735 C 352.378 303.218, 354.734 300, 357.238 294.985 C 359.294 290.868, 360.981 286.938, 360.988 286.250 C 361.011 283.866, 357.066 284.972, 355.628 287.752 M 414 301 C 414 301.550, 412.473 302, 410.606 302 C 406.267 302, 401 306.625, 401 310.434 C 401 313.888, 405.164 322.017, 408.501 325.077 C 409.954 326.410, 411.955 329.318, 412.946 331.541 C 415.258 336.720, 429.236 357.995, 430.329 357.998 C 431.701 358.001, 429.988 351.681, 427.891 349 C 424.999 345.301, 420.911 336.092, 420.130 331.512 C 419.618 328.518, 418.769 327.177, 416.781 326.224 C 415.317 325.522, 413.806 323.947, 413.424 322.724 C 413.042 321.501, 411.441 319.022, 409.865 317.215 C 408.289 315.409, 407 313.136, 407 312.165 C 407 310, 408.869 308.012, 410.950 307.964 C 413.571 307.903, 418.357 303.372, 417.676 301.597 C 417.010 299.861, 414 299.372, 414 301 M 252.072 306.250 C 251.569 307.562, 251.594 308.908, 252.132 309.478 C 253.458 310.882, 256.429 308.772, 256.820 306.148 C 257.271 303.114, 253.242 303.201, 252.072 306.250 M 419.639 307.694 C 418.403 308.930, 419.017 312, 420.500 312 C 421.325 312, 422 311.127, 422 310.059 C 422 307.972, 420.682 306.651, 419.639 307.694 M 248 315.500 C 248 316.875, 248.450 318, 249 318 C 249.550 318, 250 316.875, 250 315.500 C 250 314.125, 249.550 313, 249 313 C 248.450 313, 248 314.125, 248 315.500 M 150.691 324.750 C 150.448 325.712, 150.191 331.225, 150.122 337 C 150.053 342.775, 149.518 355.825, 148.933 366 C 148.349 376.175, 148.012 399.344, 148.185 417.487 C 148.462 446.526, 148.688 450.509, 150.072 450.776 C 152.034 451.153, 164.886 443.767, 167.245 440.907 C 168.204 439.744, 168.654 438.276, 168.245 437.646 C 167.835 437.016, 167.242 414.675, 166.928 388 C 166.348 338.858, 165.955 334, 162.564 334 C 161.747 334, 160.195 334.948, 159.116 336.106 C 156.106 339.337, 154.659 337.626, 155.438 331.756 C 155.962 327.804, 155.745 326.376, 154.395 324.884 C 152.271 322.537, 151.261 322.501, 150.691 324.750 M 481.432 341.836 C 482.102 345.879, 489.388 361.676, 491.878 364.482 C 492.862 365.592, 494.946 368.739, 496.508 371.476 C 500.670 378.765, 500.676 375.438, 496.521 365.052 C 493.338 357.098, 487.304 346.549, 482.476 340.500 C 480.947 338.585, 480.903 338.642, 481.432 341.836 M 108.073 348.635 C 106.933 350.084, 106 351.635, 106 352.081 C 106 352.528, 104.319 355.729, 102.265 359.196 C 99.011 364.690, 95.594 373.908, 96.479 374.808 C 97.509 375.855, 110.808 353.073, 111.689 348.750 C 112.404 345.244, 110.781 345.192, 108.073 348.635 M 368 471.233 C 364.560 472.811, 360.203 473.497, 349.500 474.144 C 333.336 475.122, 329 475.728, 329 477.010 C 329 479.191, 333.980 480.369, 343.250 480.380 C 348.613 480.386, 353 480.491, 353 480.614 C 353 482.432, 350.876 484.536, 347.116 486.441 C 344.567 487.733, 341.360 489.722, 339.990 490.862 L 337.500 492.933 341.500 492.908 C 343.700 492.894, 347.360 491.896, 349.633 490.691 C 359.264 485.586, 375 473.008, 375 470.415 C 375 468.553, 373.445 468.735, 368 471.233 M 155 495.334 C 155 498.406, 169.736 511.780, 190.500 527.552 C 205.847 539.210, 236.675 553.952, 263.612 562.514 C 270.428 564.681, 282.371 566.168, 285.035 565.183 L 287.456 564.287 284.351 562.681 C 282.643 561.798, 277.928 560.181, 273.873 559.088 C 266.808 557.184, 261.620 555.485, 244.907 549.599 C 235.381 546.244, 206.227 531.567, 198.960 526.467 C 188.521 519.141, 174.610 508.497, 169.570 503.979 C 158.518 494.071, 155 491.984, 155 495.334 M 442.693 510.641 C 438.624 514.593, 437.733 517.085, 441.217 514.772 C 443.828 513.038, 447.580 508.246, 446.876 507.543 C 446.607 507.274, 444.725 508.668, 442.693 510.641 M 156.397 649 C 156.397 656.975, 156.553 660.237, 156.743 656.250 C 156.932 652.263, 156.932 645.737, 156.743 641.750 C 156.553 637.763, 156.397 641.025, 156.397 649 M 278.456 645.071 C 277.586 646.479, 279.732 647.964, 282.668 647.985 C 283.861 647.993, 285.548 648.273, 286.418 648.607 C 287.350 648.965, 288 648.691, 288 647.940 C 288 647.240, 287.699 646.968, 287.331 647.336 C 286.963 647.703, 285.951 647.382, 285.081 646.620 C 282.720 644.554, 279.274 643.748, 278.456 645.071 M 412.187 647.250 C 412.444 649.923, 412.924 650.500, 414.891 650.500 C 417.656 650.500, 419.601 648.010, 418.691 645.636 C 418.296 644.609, 416.911 644, 414.968 644 C 412.079 644, 411.894 644.216, 412.187 647.250 M 125.531 646.779 C 123.603 651.804, 126.302 665, 129.258 665 C 132.784 665, 134.226 662.420, 134.561 655.513 C 134.743 651.748, 134.474 647.886, 133.964 646.932 C 132.828 644.810, 126.332 644.692, 125.531 646.779 M 220 654.683 L 220 664 223.465 664 C 228.051 664, 229.169 661.742, 228.795 653.231 L 228.500 646.500 224.250 645.933 L 220 645.366 220 654.683 M 364.575 647.460 C 363.716 650.658, 363.916 656.156, 365.037 660.192 C 366.220 664.453, 369.350 666.078, 371.751 663.677 C 373.531 661.898, 374.534 653.662, 373.587 648.611 C 372.962 645.282, 372.737 645.116, 369.027 645.264 C 366.018 645.384, 364.998 645.888, 364.575 647.460 M 505.163 646.237 C 504.507 646.893, 504 650.363, 504 654.200 C 504 659.667, 504.392 661.392, 506 663 C 508.542 665.542, 510.187 665.522, 513.139 662.916 C 514.633 661.598, 514.902 661.018, 513.872 661.338 C 511.284 662.142, 510 659.974, 510 654.800 L 510 650 513.674 650 L 517.349 650 515.151 647.661 C 512.739 645.093, 507.110 644.290, 505.163 646.237 M 487.349 654 C 487.349 658.675, 487.522 660.587, 487.732 658.250 C 487.943 655.913, 487.943 652.087, 487.732 649.750 C 487.522 647.413, 487.349 649.325, 487.349 654 M 108.343 654.500 C 108.346 658.900, 108.522 660.576, 108.733 658.224 C 108.945 655.872, 108.942 652.272, 108.727 650.224 C 108.512 648.176, 108.339 650.100, 108.343 654.500 M 151.328 654.500 C 151.333 658.350, 151.513 659.802, 151.730 657.728 C 151.946 655.653, 151.943 652.503, 151.722 650.728 C 151.501 648.952, 151.324 650.650, 151.328 654.500 M 316.389 660.500 C 316.390 667.650, 316.550 670.444, 316.742 666.708 C 316.935 662.973, 316.934 657.123, 316.739 653.708 C 316.545 650.294, 316.387 653.350, 316.389 660.500 M 461.703 649 C 459.900 654.133, 459.044 657.378, 459.399 657.733 C 459.624 657.957, 461.131 657.997, 462.749 657.821 L 465.689 657.500 463.960 652.500 C 462.923 649.503, 462.019 648.101, 461.703 649 M 522.750 649.706 C 523.987 649.944, 526.013 649.944, 527.250 649.706 C 528.487 649.467, 527.475 649.272, 525 649.272 C 522.525 649.272, 521.513 649.467, 522.750 649.706 M 279 662.956 L 276.500 663.713 279.178 664.447 C 282.127 665.255, 286 664.395, 286 662.933 C 286 661.852, 282.609 661.864, 279 662.956 M 91.250 663.735 C 93.862 663.941, 98.138 663.941, 100.750 663.735 C 103.362 663.529, 101.225 663.360, 96 663.360 C 90.775 663.360, 88.638 663.529, 91.250 663.735 M 519.250 677.662 C 517.809 678.244, 517.580 680.622, 518.887 681.430 C 519.375 681.732, 519.712 681.244, 519.637 680.347 C 519.562 679.449, 520.134 678.493, 520.909 678.221 C 521.939 677.860, 522.125 678.236, 521.600 679.614 C 521.052 681.053, 521.160 681.224, 522.054 680.337 C 524.069 678.338, 522.139 676.496, 519.250 677.662 M 98.458 679.068 C 98.095 679.656, 97.168 679.895, 96.399 679.600 C 95.457 679.238, 95.005 679.788, 95.015 681.281 C 95.027 682.974, 95.243 683.165, 95.925 682.088 C 96.616 680.995, 96.921 681.221, 97.273 683.088 C 97.708 685.396, 97.734 685.383, 97.864 682.800 C 97.939 681.315, 98.787 679.641, 99.750 679.080 C 100.713 678.519, 100.964 678.047, 100.309 678.030 C 99.654 678.014, 98.821 678.481, 98.458 679.068 M 406 683 C 406 687.735, 407.401 688.405, 407.723 683.823 C 407.846 682.079, 408.521 680.286, 409.223 679.841 C 410.095 679.288, 409.785 679.026, 408.250 679.015 C 406.289 679.002, 406 679.514, 406 683 M 426.250 679.662 C 424.772 680.259, 424.545 686, 426 686 C 426.550 686, 426.947 685.663, 426.882 685.250 C 426.446 682.492, 427.257 680.080, 428.750 679.689 C 429.927 679.382, 430.009 679.220, 429 679.195 C 428.175 679.175, 426.938 679.385, 426.250 679.662 M 220.823 687.248 C 221.230 690.022, 221.414 690.204, 222.080 688.498 C 223.268 685.453, 223.137 684, 221.673 684 C 220.745 684, 220.490 684.976, 220.823 687.248" stroke="none" fill="#f0f0f0" fill-rule="evenodd"/><path d="M 0 296.002 L 0 592.003 300.250 591.752 L 600.500 591.500 600.752 295.750 L 601.003 0 300.502 0 L 0 0 0 296.002 M 0.493 296.500 C 0.493 459.300, 0.609 525.751, 0.750 444.169 C 0.891 362.587, 0.891 229.387, 0.750 148.169 C 0.609 66.951, 0.493 133.700, 0.493 296.500 M 201.514 12.977 C 201.182 13.514, 201.340 15.652, 201.864 17.727 C 202.389 19.802, 203.109 33.425, 203.465 48 C 204.133 75.393, 205.963 92.991, 208.755 98.888 L 210.359 102.275 212.262 99.925 C 213.643 98.219, 213.988 96.742, 213.520 94.537 C 213.166 92.867, 212.623 89.207, 212.314 86.405 L 211.752 81.310 215.028 81.791 C 218.078 82.238, 218.259 82.107, 217.652 79.886 C 215.369 71.540, 215.519 70.826, 221.261 62.783 C 222.884 60.511, 222.903 59.976, 221.501 56.002 C 220.664 53.629, 220.187 51.479, 220.443 51.224 C 221.629 50.037, 225.695 52.214, 227.269 54.879 C 229.181 58.114, 245.383 77.412, 253.138 85.690 C 255.812 88.545, 258.016 91.470, 258.036 92.190 C 258.098 94.466, 262.297 98.490, 268.328 102.055 C 275.265 106.155, 288 118.104, 288 120.511 C 288 122.098, 284.555 120.276, 277.567 114.995 C 273.204 111.698, 269.248 109, 268.777 109 C 268.306 109, 264.799 106.068, 260.983 102.484 C 257.167 98.900, 253.022 95.592, 251.772 95.133 C 248.712 94.010, 234.148 94.470, 230.877 95.793 C 229.434 96.377, 227.201 98.575, 225.914 100.677 C 224.627 102.780, 222.972 105.119, 222.234 105.875 C 221.497 106.631, 221.030 108.206, 221.197 109.375 C 221.469 111.280, 222.298 111.552, 229.204 112 C 243.060 112.899, 242.166 116.482, 227.224 119.930 C 217.693 122.130, 202.951 128.528, 194.997 133.917 C 192.524 135.593, 189.938 136.972, 189.250 136.982 C 186.847 137.017, 188.360 131.497, 191.658 128.199 C 192.396 127.461, 193 126.439, 193 125.929 C 193 123.724, 190.321 125.361, 186.070 130.162 C 169.077 149.354, 165.600 152.705, 151.465 163.500 C 137.450 174.204, 128.192 182.884, 119.997 193.003 C 105.226 211.243, 98.964 221.726, 89.830 243.500 C 82.565 260.821, 79.784 270.670, 78.537 283.500 C 78.162 287.350, 77.213 293.340, 76.428 296.812 C 74.751 304.227, 74.608 308, 76.004 308 C 77.640 308, 89.069 291.993, 92.068 285.500 C 93.856 281.629, 95.600 274.887, 96.983 266.500 C 101.047 241.861, 104.298 230.168, 109.079 223 C 109.996 221.625, 112.170 217.800, 113.911 214.500 C 116.977 208.685, 120.305 203.637, 123.804 199.491 C 124.737 198.387, 127.719 194.868, 130.430 191.672 C 135.291 185.944, 147.295 175.176, 160 165.145 C 172.792 155.046, 179.017 149.521, 179.572 147.774 C 179.882 146.797, 181.066 145.500, 182.203 144.891 C 184.099 143.876, 184.217 144.001, 183.616 146.392 C 182.995 148.868, 183.159 149, 186.859 149 C 189.697 149, 191.131 149.565, 192.137 151.080 L 193.519 153.161 199.009 150.982 C 207.721 147.526, 226 147.802, 226 151.390 C 226 152.272, 224.173 152.969, 220.750 153.395 C 217.863 153.753, 211.370 155.448, 206.323 157.161 C 198.961 159.660, 196.321 161.116, 192.979 164.521 C 190.688 166.856, 189.212 169.013, 189.701 169.315 C 190.189 169.617, 192.559 168.982, 194.967 167.903 C 197.376 166.825, 202.081 165.513, 205.423 164.988 C 208.765 164.463, 213.922 163.361, 216.882 162.539 C 219.842 161.717, 222.668 161.295, 223.162 161.600 C 223.657 161.906, 223.763 163.749, 223.397 165.696 L 222.733 169.236 227.117 168.497 C 229.527 168.091, 235.100 167.701, 239.500 167.630 C 246.871 167.510, 247.972 167.767, 253.500 170.895 C 262.178 175.806, 265.540 178.598, 269.728 184.372 C 271.773 187.192, 274.249 190.090, 275.229 190.811 C 277.853 192.740, 280.257 197.826, 281.228 203.500 C 281.698 206.250, 282.347 210.031, 282.669 211.901 L 283.254 215.303 279.484 214.691 C 277.410 214.355, 274.653 213.083, 273.357 211.865 C 270.154 208.856, 270.348 211.278, 273.657 215.617 C 277.195 220.255, 280.731 222.080, 283.627 220.760 C 285.084 220.096, 286.814 220.083, 288.672 220.722 C 290.227 221.257, 292.063 221.500, 292.750 221.264 C 294.681 220.599, 294.228 216.517, 292 214.500 C 290.900 213.505, 290 212.267, 290 211.749 C 290 211.232, 289.070 209.503, 287.933 207.906 C 285.280 204.181, 285.607 199.344, 288.477 199.846 C 289.565 200.036, 291.943 201.499, 293.762 203.096 C 297.892 206.722, 299.108 206.722, 303.238 203.096 C 305.057 201.499, 307.435 200.036, 308.523 199.846 C 312.659 199.122, 309.789 208.980, 303.892 215.749 C 302.279 217.602, 301.310 219.644, 301.638 220.499 C 302.330 222.303, 305.310 222.448, 307.939 220.806 C 309.423 219.879, 310.445 219.882, 312.499 220.818 C 316.133 222.473, 320.959 220.109, 324.564 214.908 C 327.638 210.472, 327.161 208.599, 323.746 211.695 C 321.263 213.947, 315.390 215.441, 314.526 214.041 C 314.222 213.550, 314.623 211.202, 315.417 208.824 C 316.211 206.446, 317.186 202.700, 317.582 200.500 C 318.366 196.156, 322.287 190.946, 333 180.015 C 343.225 169.581, 354.280 165.271, 364.250 167.831 C 373.699 170.258, 375.355 170.368, 374.646 168.520 C 374.286 167.582, 373.706 165.678, 373.358 164.289 C 372.746 161.851, 372.859 161.783, 376.612 162.316 C 383.725 163.327, 391.430 165.091, 397.806 167.167 C 404.399 169.314, 406.135 169.059, 404.389 166.202 C 401.559 161.569, 387.455 155.084, 376.259 153.267 C 374.451 152.974, 373 152.137, 373 151.388 C 373 147.892, 389.982 147.571, 397.562 150.925 C 403.320 153.471, 403.526 153.474, 405.979 151.021 C 407.446 149.554, 408.741 149.198, 410.979 149.646 C 414.792 150.408, 415.126 147.963, 411.656 144.702 C 410.366 143.491, 409.033 141.364, 408.693 139.976 C 407.522 135.190, 386.656 123.846, 372.098 120.081 C 362.335 117.555, 360 116.475, 360 114.484 C 360 112.493, 364.157 111.630, 370.011 112.407 C 374.467 112.998, 375.063 112.834, 376.516 110.616 C 378.062 108.257, 377.964 107.976, 373.631 102.277 C 368.842 95.980, 363.931 93.340, 360.539 95.238 C 359.394 95.879, 357.403 95.813, 354.650 95.042 C 349.225 93.523, 344.172 95.670, 337.521 102.321 C 334.896 104.946, 330.667 108.159, 328.124 109.460 C 325.581 110.761, 320.858 113.890, 317.630 116.413 C 311.619 121.110, 310 121.846, 310 119.882 C 310 116.749, 323.585 104.828, 332.147 100.448 C 335.492 98.737, 337.593 96.692, 339.647 93.150 C 341.216 90.444, 347.467 82.666, 353.537 75.865 C 359.607 69.064, 365.977 61.475, 367.691 59 C 371.992 52.792, 377.602 47.546, 378.458 48.931 C 378.833 49.539, 378.209 51.544, 377.070 53.386 C 374.428 57.662, 374.439 61.182, 377.102 63.593 C 380.519 66.685, 381.973 70.393, 381.327 74.370 C 380.736 78.012, 381.637 78.963, 383.713 76.887 C 387.272 73.328, 388.124 82.073, 384.993 90.017 C 383.450 93.934, 383.235 95.570, 384.061 97.114 C 385.644 100.072, 388.297 99.003, 389.322 94.993 C 389.814 93.072, 390.895 89.700, 391.725 87.500 C 392.749 84.788, 393.508 77.061, 394.081 63.500 C 394.546 52.500, 395.394 36.563, 395.964 28.084 C 396.535 19.606, 396.811 12.477, 396.577 12.243 C 395.584 11.251, 392.222 13.218, 391.245 15.362 C 390.009 18.075, 383.172 23.700, 366.500 35.721 C 359.900 40.481, 351.825 46.348, 348.555 48.759 C 345.285 51.171, 340.560 54.318, 338.055 55.752 C 329.996 60.365, 320.695 67.929, 312.785 76.303 C 306.715 82.727, 304.809 84.209, 303.850 83.250 C 301.549 80.949, 306.658 73.103, 317.826 61.783 C 323.642 55.889, 328.089 50.756, 327.710 50.377 C 327.331 49.997, 325.212 50.503, 323.001 51.499 C 318.560 53.502, 302.521 68.784, 301.507 71.979 C 300.511 75.117, 297.428 74.447, 295.901 70.761 C 295.163 68.979, 291.775 64.817, 288.372 61.511 C 281.785 55.112, 270 47.853, 270 50.194 C 270 50.926, 273.974 55.390, 278.831 60.116 C 288.675 69.695, 294 76.867, 294 80.550 C 294 84.550, 291.423 83.434, 286.282 77.208 C 280.990 70.797, 274.692 65.736, 259 55.280 C 227.572 34.340, 214.261 23.801, 205.910 13.250 C 204.730 11.759, 202.358 11.611, 201.514 12.977 M 332.925 26.926 C 327.574 30.470, 323.396 34.729, 324.342 35.675 C 325.737 37.071, 339.500 28.209, 339.500 25.915 C 339.500 23.622, 337.435 23.939, 332.925 26.926 M 231.131 53.750 C 232.508 55.263, 234.342 57.625, 235.204 59 C 237.477 62.621, 251.619 77.592, 255.127 80.090 C 256.770 81.261, 258.375 81.958, 258.693 81.640 C 260.853 79.480, 233.876 51, 229.669 51 C 229.095 51, 229.753 52.237, 231.131 53.750 M 357.624 58.250 C 343.681 72.322, 339.599 78, 343.427 78 C 345.921 78, 365 57.187, 365 54.467 C 365 51.839, 362.920 52.906, 357.624 58.250 M 338.876 64.703 C 334.643 68.194, 333.072 70.122, 333.032 71.872 C 332.986 73.867, 336.669 71.254, 340.396 66.649 C 344.104 62.068, 343.306 61.047, 338.876 64.703 M 255.895 64.750 C 257.532 67.718, 271.900 81.433, 272.619 80.714 C 273.208 80.125, 270.847 76.201, 266.729 70.925 C 265.181 68.941, 256.999 63, 255.815 63 C 255.328 63, 255.364 63.788, 255.895 64.750 M 136.667 72.667 C 135.009 74.325, 136.351 75.838, 140.514 77.004 C 149.964 79.650, 154.528 89.463, 152.561 102.905 C 150.929 114.058, 145.405 127.024, 138.463 136 C 132.085 144.246, 130.052 145.905, 114.750 155.349 C 111.021 157.650, 111.001 160.468, 114.721 159.534 C 119.503 158.334, 129.285 152.286, 136.575 146.024 C 149.552 134.877, 159.240 114.425, 159.326 98 C 159.361 91.210, 158.940 88.672, 157.233 85.384 C 154.367 79.863, 150.376 75.246, 146.931 73.464 C 144.021 71.960, 137.853 71.480, 136.667 72.667 M 444.823 76.750 C 440.384 81.395, 437 90.340, 437 97.428 C 437 105.060, 441.484 121.303, 445.809 129.335 C 447.839 133.105, 451.884 138.829, 454.797 142.054 C 460.957 148.874, 474.046 158, 477.667 158 C 481.365 158, 480.141 156.052, 473.646 151.598 C 466.275 146.544, 456.243 135.871, 452.361 128.955 C 448.381 121.865, 446.371 115.436, 444.920 105.158 C 443.060 91.975, 444.641 84.450, 450.505 78.586 C 453.664 75.426, 453.751 73, 450.703 73 C 449.352 73, 446.930 74.545, 444.823 76.750 M 174 108.943 C 169.367 111.398, 165 115.527, 165 117.452 C 165 119.723, 166.516 119.355, 170.215 116.186 C 172.022 114.639, 174.963 112.358, 176.750 111.118 C 182.429 107.179, 180.383 105.561, 174 108.943 M 247 117.550 C 247 119.732, 250.476 123.899, 253.902 125.825 C 260.327 129.436, 259.087 133.440, 252.515 130.306 C 249.603 128.917, 248.560 128.817, 247.196 129.795 C 243.887 132.170, 242.873 132.229, 240.684 130.173 C 238.041 127.689, 236.725 128.339, 235.164 132.899 C 233.376 138.121, 233.662 139.997, 236.250 140.017 C 240.907 140.053, 252.036 142.958, 257.663 145.606 C 261.961 147.629, 266.136 151.046, 273.500 158.570 C 279 164.189, 284.267 170.185, 285.203 171.894 C 286.140 173.602, 287.535 175, 288.303 175 C 290.879 175, 289.751 158.651, 286.682 151.500 C 283.098 143.150, 277.333 137.027, 259.747 122.890 C 254.319 118.527, 247 115.461, 247 117.550 M 345.500 118.389 C 343.850 119.110, 341.150 120.792, 339.500 122.128 C 337.850 123.463, 334.543 125.873, 332.151 127.482 C 326.006 131.618, 316.676 142.114, 313.668 148.275 C 307.437 161.039, 305.951 166.551, 308.149 168.749 C 309.830 170.430, 314.610 167.692, 315.385 164.602 C 315.726 163.244, 317.016 161.816, 318.252 161.428 C 319.489 161.041, 323.016 158.423, 326.092 155.612 C 336.434 146.157, 345.625 141.939, 359.250 140.394 C 362.413 140.035, 365 139.597, 365 139.420 C 365 136.734, 362.485 128.818, 361.326 127.856 C 360.033 126.782, 359.373 127.089, 357.145 129.800 C 354.020 133.603, 353.372 133.698, 350.294 130.806 C 348.211 128.850, 347.603 128.742, 344.659 129.806 C 340.429 131.336, 340 131.310, 340 129.520 C 340 128.707, 341.785 127.130, 343.967 126.017 C 347.959 123.980, 350 121.460, 350 118.566 C 350 116.695, 349.430 116.672, 345.500 118.389 M 406 126.961 C 406 129.174, 412.904 141.067, 416.047 144.269 C 417.946 146.203, 422.200 150.734, 425.500 154.338 C 428.800 157.942, 437.903 166.773, 445.729 173.963 C 469.030 195.371, 478.662 207.278, 488.402 226.717 C 493.888 237.666, 495.806 244.153, 499.570 264.500 C 502.627 281.024, 505.617 287.854, 515.796 301.562 C 521.547 309.307, 521.720 308.689, 519.476 288.441 C 517.164 267.592, 515.608 262.732, 502.447 235.245 C 494.832 219.342, 485.637 205.091, 476.651 195.267 C 473.750 192.095, 469.963 187.915, 468.235 185.978 C 466.508 184.041, 460.476 178.416, 454.832 173.478 C 438.688 159.353, 425.440 146.240, 417.865 136.885 C 411.617 129.170, 406 124.472, 406 126.961 M 336.750 155.080 C 334.913 156.150, 334.368 158, 335.889 158 C 336.378 158, 337.841 157.115, 339.139 156.033 C 341.704 153.897, 339.969 153.205, 336.750 155.080 M 242.403 177.843 C 242.689 178.307, 246.428 180.738, 250.712 183.245 C 258.764 187.960, 262.572 191.189, 269.614 199.276 C 274.049 204.370, 276 205.190, 276 201.960 C 276 198.143, 272.239 192.342, 268.857 190.941 C 267.070 190.201, 264.234 188.408, 262.554 186.957 C 255.977 181.275, 248.527 177, 245.204 177 C 243.377 177, 242.116 177.379, 242.403 177.843 M 348.823 177.868 C 347.350 178.216, 343.129 180.750, 339.444 183.500 C 335.758 186.250, 331.148 189.475, 329.200 190.667 C 327.253 191.859, 325.077 193.884, 324.365 195.167 C 322.999 197.630, 322.528 203, 323.678 203 C 324.051 203, 327.988 199.382, 332.428 194.960 C 336.868 190.538, 343.391 185.250, 346.925 183.210 C 355.527 178.243, 356.286 176.108, 348.823 177.868 M 88.668 186.750 C 78.374 197.553, 66.637 214.567, 64.529 221.744 C 63.258 226.067, 66.618 223.071, 71.875 215.193 C 74.698 210.962, 77.783 206.375, 78.730 205 C 79.677 203.625, 84.175 198.338, 88.726 193.252 C 93.277 188.165, 97 183.553, 97 183.002 C 97 180.523, 92.802 182.412, 88.668 186.750 M 499 182.865 C 499 183.914, 502.745 188.881, 505.237 191.137 C 508.510 194.099, 519.558 207.802, 520.994 210.680 C 522.844 214.385, 528.314 221.930, 529.180 221.969 C 530.565 222.032, 524.637 209.278, 520.217 202.686 C 511.987 190.412, 499 178.279, 499 182.865 M 223 183.711 C 222.175 184.040, 217.053 186.489, 211.617 189.154 C 206.181 191.819, 201.334 194, 200.845 194 C 200.356 194, 196.097 195.800, 191.379 198 C 186.661 200.200, 182.457 202, 182.037 202 C 181.617 202, 172.685 206.068, 162.189 211.040 C 146.126 218.649, 141.726 220.303, 134.388 221.491 C 124.757 223.049, 114.719 226.658, 115.286 228.357 C 115.509 229.027, 117.363 229.268, 120.075 228.979 C 122.509 228.721, 127.277 228.507, 130.671 228.504 C 135.839 228.501, 137.263 228.896, 139.436 230.938 L 142.030 233.377 141.982 343.766 L 141.935 454.156 139.601 456.328 C 134.883 460.719, 129.144 464.957, 124.966 467.135 C 120.221 469.608, 111.497 478.052, 108.693 482.886 C 105.856 487.778, 108.812 486.794, 113.609 481.250 C 116.039 478.441, 121.148 474.512, 126.109 471.636 C 130.724 468.961, 135.834 465.838, 137.465 464.697 C 139.095 463.556, 146.745 459.496, 154.465 455.675 C 162.184 451.854, 169.573 447.888, 170.885 446.864 C 175.572 443.201, 185.072 444.741, 198.853 451.397 C 205.911 454.806, 226.432 475.779, 238 491.404 C 239.925 494.004, 243.899 498.899, 246.831 502.282 C 253.586 510.077, 254.570 511.844, 252.579 512.608 C 249.653 513.731, 244.798 509.446, 226.500 489.595 C 222.100 484.821, 215.125 478.091, 211 474.640 C 190.900 457.821, 181.535 454.681, 195.763 469.532 C 199.468 473.399, 204.075 478.719, 206 481.353 C 215.174 493.907, 221.274 501.021, 227.842 506.826 C 234.870 513.037, 236.274 515.297, 233.713 516.280 C 231.911 516.971, 228.228 515.141, 222.449 510.683 C 219.727 508.583, 212.274 502.958, 205.886 498.183 C 199.499 493.407, 191.624 487.363, 188.386 484.751 C 182.514 480.012, 180 478.943, 180 481.184 C 180 482.901, 199.452 501.837, 206.500 506.981 C 209.800 509.390, 212.725 511.670, 213 512.049 C 213.727 513.050, 230.848 523.993, 237.131 527.473 C 248.241 533.627, 267.747 540.850, 278.739 542.882 C 298.543 546.542, 302.662 547, 315.615 546.983 C 330.560 546.963, 341.118 544.761, 346.011 540.644 C 347.687 539.234, 350.729 537.766, 352.769 537.383 C 354.810 537.001, 358.284 535.868, 360.490 534.866 C 362.695 533.864, 366.166 533.034, 368.201 533.022 C 379.135 532.957, 393.989 525.380, 413 510.172 C 425.420 500.236, 431.181 493.848, 428.959 492.475 C 427.816 491.768, 427.170 492.204, 418.929 499.235 C 406.190 510.104, 387.052 522.870, 381 524.537 C 378.525 525.218, 375.785 526.072, 374.910 526.433 C 373.998 526.811, 372.774 526.432, 372.038 525.546 C 370.418 523.594, 365.288 523.572, 358.654 525.490 C 355.413 526.426, 348.119 527.076, 339 527.240 C 325.305 527.486, 324.500 527.394, 324.500 525.591 C 324.500 524.037, 326.734 522.947, 336.500 519.736 C 343.100 517.566, 350.009 515.148, 351.854 514.362 C 353.699 513.576, 357.287 512.648, 359.828 512.300 C 363.293 511.825, 365.234 510.834, 367.589 508.337 C 369.317 506.505, 372.596 504.348, 374.876 503.544 C 380.159 501.680, 387.557 496.606, 389.651 493.410 C 392.623 488.874, 391.800 489.045, 374.146 496.626 C 367.997 499.267, 346.615 503.906, 337.468 504.584 C 319.627 505.907, 307.984 502.337, 291.756 490.569 C 285.874 486.303, 280.592 482.969, 280.018 483.161 C 279.444 483.352, 283.031 487.499, 287.988 492.378 C 292.944 497.256, 297 501.647, 297 502.137 C 297 502.945, 292.140 501.308, 288.593 499.305 C 280.784 494.896, 256.495 467.986, 249.606 456.110 C 244.871 447.949, 239.521 434.722, 236.821 424.500 C 233.906 413.469, 233.219 395.597, 235.385 387.143 C 236.273 383.676, 237 380.132, 237 379.269 C 237 378.406, 238.238 375.252, 239.750 372.260 C 242.314 367.189, 245.734 363.411, 257 353.201 C 260.659 349.884, 261.261 348.882, 260.222 347.834 C 259.201 346.803, 258.600 346.794, 257.222 347.787 C 256.275 348.470, 254.150 349.866, 252.500 350.890 C 238.999 359.266, 223.726 379.385, 226.078 385.697 C 226.528 386.905, 226.838 393.205, 226.768 399.697 C 226.685 407.276, 227.232 414.363, 228.295 419.500 C 230.004 427.753, 237.014 447.802, 239.559 451.715 C 240.352 452.933, 241 455.028, 241 456.371 C 241 460.010, 237.383 458.640, 235.064 454.123 C 234.041 452.131, 232.022 448.265, 230.578 445.533 C 229.134 442.801, 226.594 436.164, 224.933 430.783 C 223.273 425.402, 221.435 421, 220.849 421 C 220.211 421, 220.035 422.005, 220.411 423.501 C 220.756 424.876, 221.315 428.021, 221.654 430.490 C 221.992 432.958, 222.883 435.488, 223.634 436.112 C 224.385 436.735, 225.003 437.977, 225.006 438.872 C 225.010 439.768, 225.733 441.850, 226.615 443.500 C 227.496 445.150, 228.564 447.657, 228.988 449.072 C 229.412 450.487, 231.197 453.637, 232.955 456.072 C 234.713 458.507, 240.226 466.800, 245.206 474.500 C 250.186 482.200, 256.114 490.741, 258.380 493.480 C 263.230 499.343, 275.122 511.171, 279.750 514.735 C 283.251 517.430, 284.025 520, 281.338 520 C 279.307 520, 271.559 515.160, 263.500 508.858 C 257.407 504.093, 246.315 492.498, 239.340 483.602 C 229.507 471.060, 209.236 452, 205.730 452 C 205.252 452, 202.898 450.650, 200.500 449 C 198.102 447.350, 195.642 446, 195.035 446 C 194.427 446, 192.830 445.279, 191.485 444.398 C 190.141 443.517, 187.119 442.370, 184.770 441.849 C 182.422 441.328, 178.813 439.792, 176.750 438.437 L 173 435.972 173 348.052 L 173 260.133 175.712 259.816 C 178.054 259.543, 179.105 258.134, 183.404 249.500 C 186.143 244, 188.635 237.475, 188.942 235 C 189.691 228.964, 192.620 228.740, 195.489 234.500 C 196.584 236.700, 198.898 240.975, 200.629 244 C 205.909 253.225, 231.046 301.499, 243.141 325.642 C 249.472 338.279, 252.924 344.100, 254.515 344.825 C 255.772 345.398, 257.070 345.596, 257.400 345.266 C 258.400 344.267, 258.071 338.162, 256.981 337.488 C 255.121 336.339, 251 327.114, 251 324.101 C 251 321.918, 251.584 320.949, 253.212 320.433 C 254.429 320.047, 256.261 318.666, 257.285 317.365 C 260.008 313.903, 263.411 314.310, 265.939 318.401 C 267.095 320.271, 268.615 322.022, 269.317 322.291 C 270.414 322.712, 275.292 330.762, 283.988 346.500 C 285.203 348.700, 287.166 352.067, 288.349 353.982 C 289.532 355.896, 291.639 359.718, 293.032 362.474 C 296.278 368.897, 298.287 369.318, 300.933 364.131 C 302.054 361.934, 303.438 359.847, 304.009 359.494 C 304.580 359.142, 306.345 355.989, 307.932 352.489 C 309.519 348.989, 312.144 344.184, 313.764 341.813 C 315.385 339.441, 317.249 335.848, 317.907 333.830 C 318.564 331.811, 319.787 329.592, 320.624 328.897 C 321.461 328.202, 323.477 324.699, 325.103 321.113 C 326.729 317.526, 328.668 313.896, 329.412 313.046 C 330.155 312.196, 331.094 310.375, 331.498 309 C 331.902 307.625, 334.010 304.767, 336.182 302.649 C 339.889 299.036, 340.214 298.911, 341.466 300.623 C 342.576 302.141, 342.577 302.766, 341.471 304.345 C 339.941 306.530, 340.727 309.358, 344.150 313.989 L 346.339 316.950 342.669 324.769 C 340.651 329.070, 339 333.048, 339 333.610 C 339 334.632, 336.289 340.074, 321.369 369 C 298.203 413.916, 298.226 413.876, 296.088 412.554 C 295.480 412.179, 293.394 408.638, 291.453 404.686 C 284.496 390.526, 272.858 368.396, 269.400 362.750 C 267.065 358.938, 265.224 357, 263.939 357 C 262.872 357, 262 357.445, 262 357.989 C 262 359.088, 266.890 369.101, 275.192 385 C 278.208 390.775, 283.942 401.800, 287.934 409.500 C 291.927 417.200, 295.589 423.917, 296.073 424.426 C 297.352 425.773, 300.769 422.329, 301.512 418.943 C 301.857 417.376, 302.969 415.037, 303.985 413.746 C 305.001 412.455, 307.368 408.271, 309.246 404.449 C 312.971 396.868, 326.061 371.511, 333.226 358 C 335.704 353.325, 342.127 340.950, 347.497 330.500 C 352.868 320.050, 359.980 306.325, 363.303 300 C 371.431 284.527, 376.909 274.012, 380.400 267.188 C 381.995 264.070, 383.505 259.701, 383.755 257.479 C 384.714 248.973, 378.268 241.306, 371.258 242.615 C 369.474 242.947, 367.353 242.966, 366.544 242.655 C 362.511 241.108, 371.165 230.973, 376.482 231.016 C 379.660 231.042, 386.019 235.139, 389.405 239.341 L 392.500 243.182 393 281.341 C 393.279 302.615, 393.079 323.371, 392.548 328.248 C 391.843 334.731, 391.901 337.301, 392.775 338.175 C 394.640 340.040, 398 336.370, 398 332.467 C 398 328.960, 399.941 326.636, 402.123 327.529 C 402.880 327.839, 404.749 330.659, 406.276 333.796 C 407.802 336.933, 411.269 343.100, 413.980 347.500 C 416.691 351.900, 420.183 357.975, 421.741 361 C 423.298 364.025, 425.751 368.525, 427.191 371 C 434.976 384.378, 441.056 404.654, 441.733 419.500 C 442.010 425.550, 442.578 431.134, 442.997 431.910 C 444.157 434.058, 446.111 429.822, 448.030 421 C 449.625 413.665, 449.728 413.500, 452.707 413.500 C 454.746 413.500, 456.427 412.673, 457.792 411 L 459.831 408.500 460.329 411 C 461.957 419.184, 463.743 453.444, 463.103 464.250 C 462.961 466.664, 458.218 466.518, 455 464 C 453.625 462.924, 452.168 462.034, 451.763 462.022 C 451.358 462.010, 445.846 459.556, 439.513 456.569 C 427.012 450.673, 426.317 449.789, 430.376 444.965 C 437.368 436.655, 433.276 403.808, 422.509 381.814 C 415.129 366.739, 412.464 362.467, 408.823 359.874 L 405.770 357.700 406.465 360.100 C 406.847 361.420, 408.668 365.650, 410.512 369.500 C 414.805 378.464, 418.512 386.930, 421.461 394.500 C 424.517 402.344, 428 422.533, 428 432.398 C 428 439.938, 427.886 440.314, 424.600 443.600 C 422.730 445.470, 420.488 447, 419.618 447 C 417.481 447, 401.453 439.542, 400.590 438.146 C 399.679 436.672, 399.567 356.987, 400.473 354.798 C 401.404 352.548, 400.351 351, 397.890 351 C 396.552 351, 395.409 352.170, 394.408 354.565 C 393.168 357.533, 392.940 364.582, 393.048 396.657 L 393.176 435.184 390.849 437.660 C 389.569 439.023, 385.960 441.503, 382.828 443.172 C 377.167 446.189, 374.637 449, 377.581 449 C 378.416 449, 380.333 448.362, 381.841 447.582 C 383.349 446.803, 387.382 445.586, 390.803 444.880 C 396.807 443.640, 397.208 443.687, 402.262 446.244 C 405.143 447.701, 413.575 451.558, 421 454.814 C 450.377 467.699, 460.714 472.262, 465.661 474.527 C 468.499 475.827, 474.012 479.637, 477.911 482.992 C 481.810 486.348, 485 488.775, 485 488.385 C 485 486.240, 479.374 478.641, 474.986 474.858 L 469.929 470.500 469.557 435.500 C 469.207 402.486, 469.045 399.904, 466.713 390 C 465.354 384.225, 463.255 377.025, 462.050 374 C 458.107 364.103, 446.337 338.907, 435.655 317.500 C 419.667 285.459, 416.287 276.075, 413.445 255.846 C 411.879 244.694, 412.383 239.027, 415.476 233.046 C 417.627 228.887, 423.523 224.180, 427.522 223.430 C 434.460 222.128, 444.543 228.270, 447.641 235.684 C 449.423 239.947, 448.457 241.979, 441.873 247.828 C 436.072 252.980, 435.668 255.739, 439.459 264.312 C 441.986 270.026, 451.199 280.155, 461.686 288.750 C 470.741 296.172, 470.554 296.591, 470.152 269.776 C 469.853 249.823, 469.531 245.823, 467.870 241.381 C 465.239 234.350, 461.095 228.890, 454.788 224.142 C 449.625 220.255, 414.448 202, 412.122 202 C 411.477 202, 407.924 200.484, 404.225 198.631 C 400.526 196.778, 396.375 194.916, 395 194.492 C 393.625 194.069, 387.775 191.481, 382 188.742 C 371.695 183.853, 366.086 182.449, 365.334 184.568 C 365.125 185.156, 367.350 187.286, 370.278 189.302 C 378.086 194.680, 381.603 199.997, 379.044 202.556 C 378.518 203.082, 374.488 210.709, 370.087 219.506 C 365.686 228.303, 361.400 236.625, 360.562 238 C 359.724 239.375, 357.547 243.650, 355.723 247.500 C 351.346 256.741, 331.281 296.808, 329.432 300 C 327.584 303.190, 313.827 328.693, 308.204 339.355 C 297.716 359.238, 297.567 359.309, 291.201 347.500 C 281.494 329.491, 276.808 320.597, 267.493 302.500 C 258.497 285.022, 235.835 241.156, 220.270 211.091 L 213.846 198.683 215.706 196.192 C 216.729 194.822, 220.211 191.846, 223.444 189.580 C 226.677 187.313, 229.263 185.018, 229.192 184.479 C 229.040 183.332, 225.162 182.851, 223 183.711 M 174 184.705 C 170.757 185.889, 158.303 194.572, 153.778 198.804 C 148.988 203.285, 147.734 206, 150.456 206 C 153.691 206, 177 188.337, 177 185.885 C 177 183.940, 176.565 183.769, 174 184.705 M 415 186.022 C 415 186.584, 417.588 188.721, 420.752 190.772 C 423.916 192.822, 428.303 195.824, 430.502 197.443 C 442.670 206.398, 450.083 211.251, 450.681 210.652 C 451.789 209.545, 443.835 200.769, 437.295 195.883 C 425.748 187.256, 415 182.502, 415 186.022 M 458.526 261.500 C 456.460 267.498, 455.983 268.129, 453.992 267.497 C 450.676 266.445, 451.754 269.127, 458.513 278.750 C 462.417 284.308, 464.557 278.970, 461.427 271.480 C 460.562 269.410, 460.069 266.767, 460.332 265.608 C 460.595 264.449, 460.451 262.600, 460.012 261.500 L 459.215 259.500 458.526 261.500 M 106.629 271.250 C 105.269 273.038, 102.106 278.923, 99.600 284.329 C 94.796 294.690, 91.845 299.028, 83.500 308 C 76.001 316.062, 69.635 326.531, 65.456 337.671 C 60.955 349.670, 60.009 354.857, 59.328 371.250 C 58.708 386.204, 60.294 395.323, 65.482 406.622 C 70.637 417.850, 79 429.303, 79 425.135 C 79 424.659, 78.162 423.197, 77.137 421.885 C 74.654 418.705, 71 411.431, 71 409.667 C 71 408.890, 70.017 406.060, 68.815 403.377 C 66.873 399.040, 66.637 396.839, 66.685 383.500 C 66.740 368.594, 66.763 368.444, 70.387 359.582 C 74.483 349.567, 75.846 347.446, 77.272 348.872 C 77.881 349.481, 77.387 352.313, 75.914 356.664 C 73.116 364.927, 72.937 379.023, 75.475 391.260 C 77.244 399.786, 83.095 413.895, 86.700 418.327 L 89 421.153 89 418.607 C 89 417.207, 88.157 414.560, 87.126 412.725 C 86.096 410.890, 84.237 404.932, 82.996 399.484 C 78.299 378.865, 82.502 354.567, 93.718 337.500 C 95.164 335.300, 97.463 331.801, 98.828 329.723 C 100.192 327.646, 103.925 322.984, 107.122 319.362 C 115.777 309.558, 121.116 299.349, 119.623 295.459 C 118.724 293.117, 115.268 295.370, 113.241 299.620 C 111.383 303.518, 100.732 312, 97.696 312 C 95.285 312, 95.531 311.153, 103.350 292.500 C 104.734 289.200, 106.818 283.125, 107.982 279 C 109.146 274.875, 110.354 270.712, 110.666 269.750 C 111.591 266.898, 109.290 267.753, 106.629 271.250 M 489 274.760 C 489 276.370, 489.844 280.120, 490.875 283.093 C 492.764 288.541, 501.140 307.918, 503.089 311.347 C 507.094 318.396, 492.977 309.845, 483.934 299.745 C 476.420 291.352, 473.856 295.422, 480.129 305.785 C 482.207 309.218, 484.564 312.361, 495.549 326.345 C 500.363 332.473, 511 349.831, 511 351.559 C 511 352.226, 512.084 356.086, 513.408 360.136 C 514.733 364.186, 516.088 371.100, 516.421 375.500 C 516.993 383.057, 515.972 399.304, 514.441 407 C 513.815 410.149, 513.901 410.350, 515.299 409 C 517.429 406.944, 520.561 397.078, 522.040 387.767 C 523.598 377.962, 522.850 362.240, 520.469 354.762 C 518.570 348.797, 518.808 347.329, 521.506 348.364 C 527.007 350.475, 533.206 379.275, 531.106 392.962 C 529.161 405.644, 528.885 409, 529.787 409 C 531.148 409, 533.743 402.440, 535.719 394 C 537.845 384.923, 538.045 365.746, 536.122 355.500 C 532.525 336.340, 525.050 320.564, 513.737 308.258 C 506.653 300.552, 502.724 294.697, 496.574 282.684 C 491.137 272.062, 489 269.826, 489 274.760 M 355.628 287.752 C 354.845 289.266, 353.259 291.361, 352.102 292.407 C 350.946 293.454, 350 295.336, 350 296.590 C 350 300.162, 348.200 304, 346.525 304 C 345.686 304, 345 304.675, 345 305.500 C 345 307.555, 346.124 307.387, 350.102 304.735 C 352.378 303.218, 354.734 300, 357.238 294.985 C 359.294 290.868, 360.981 286.938, 360.988 286.250 C 361.011 283.866, 357.066 284.972, 355.628 287.752 M 414 301 C 414 301.550, 412.473 302, 410.606 302 C 406.267 302, 401 306.625, 401 310.434 C 401 313.888, 405.164 322.017, 408.501 325.077 C 409.954 326.410, 411.955 329.318, 412.946 331.541 C 415.258 336.720, 429.236 357.995, 430.329 357.998 C 431.701 358.001, 429.988 351.681, 427.891 349 C 424.999 345.301, 420.911 336.092, 420.130 331.512 C 419.618 328.518, 418.769 327.177, 416.781 326.224 C 415.317 325.522, 413.806 323.947, 413.424 322.724 C 413.042 321.501, 411.441 319.022, 409.865 317.215 C 408.289 315.409, 407 313.136, 407 312.165 C 407 310, 408.869 308.012, 410.950 307.964 C 413.571 307.903, 418.357 303.372, 417.676 301.597 C 417.010 299.861, 414 299.372, 414 301 M 252.072 306.250 C 251.569 307.562, 251.594 308.908, 252.132 309.478 C 253.458 310.882, 256.429 308.772, 256.820 306.148 C 257.271 303.114, 253.242 303.201, 252.072 306.250 M 419.639 307.694 C 418.403 308.930, 419.017 312, 420.500 312 C 421.325 312, 422 311.127, 422 310.059 C 422 307.972, 420.682 306.651, 419.639 307.694 M 248 315.500 C 248 316.875, 248.450 318, 249 318 C 249.550 318, 250 316.875, 250 315.500 C 250 314.125, 249.550 313, 249 313 C 248.450 313, 248 314.125, 248 315.500 M 150.691 324.750 C 150.448 325.712, 150.191 331.225, 150.122 337 C 150.053 342.775, 149.518 355.825, 148.933 366 C 148.349 376.175, 148.012 399.344, 148.185 417.487 C 148.462 446.526, 148.688 450.509, 150.072 450.776 C 152.034 451.153, 164.886 443.767, 167.245 440.907 C 168.204 439.744, 168.654 438.276, 168.245 437.646 C 167.835 437.016, 167.242 414.675, 166.928 388 C 166.348 338.858, 165.955 334, 162.564 334 C 161.747 334, 160.195 334.948, 159.116 336.106 C 156.106 339.337, 154.659 337.626, 155.438 331.756 C 155.962 327.804, 155.745 326.376, 154.395 324.884 C 152.271 322.537, 151.261 322.501, 150.691 324.750 M 481.432 341.836 C 482.102 345.879, 489.388 361.676, 491.878 364.482 C 492.862 365.592, 494.946 368.739, 496.508 371.476 C 500.670 378.765, 500.676 375.438, 496.521 365.052 C 493.338 357.098, 487.304 346.549, 482.476 340.500 C 480.947 338.585, 480.903 338.642, 481.432 341.836 M 108.073 348.635 C 106.933 350.084, 106 351.635, 106 352.081 C 106 352.528, 104.319 355.729, 102.265 359.196 C 99.011 364.690, 95.594 373.908, 96.479 374.808 C 97.509 375.855, 110.808 353.073, 111.689 348.750 C 112.404 345.244, 110.781 345.192, 108.073 348.635 M 368 471.233 C 364.560 472.811, 360.203 473.497, 349.500 474.144 C 333.336 475.122, 329 475.728, 329 477.010 C 329 479.191, 333.980 480.369, 343.250 480.380 C 348.613 480.386, 353 480.491, 353 480.614 C 353 482.432, 350.876 484.536, 347.116 486.441 C 344.567 487.733, 341.360 489.722, 339.990 490.862 L 337.500 492.933 341.500 492.908 C 343.700 492.894, 347.360 491.896, 349.633 490.691 C 359.264 485.586, 375 473.008, 375 470.415 C 375 468.553, 373.445 468.735, 368 471.233 M 155 495.334 C 155 498.406, 169.736 511.780, 190.500 527.552 C 205.847 539.210, 236.675 553.952, 263.612 562.514 C 270.428 564.681, 282.371 566.168, 285.035 565.183 L 287.456 564.287 284.351 562.681 C 282.643 561.798, 277.928 560.181, 273.873 559.088 C 266.808 557.184, 261.620 555.485, 244.907 549.599 C 235.381 546.244, 206.227 531.567, 198.960 526.467 C 188.521 519.141, 174.610 508.497, 169.570 503.979 C 158.518 494.071, 155 491.984, 155 495.334 M 442.693 510.641 C 438.624 514.593, 437.733 517.085, 441.217 514.772 C 443.828 513.038, 447.580 508.246, 446.876 507.543 C 446.607 507.274, 444.725 508.668, 442.693 510.641 M 36.849 632.345 C 26.286 635.287, 23.057 640.388, 23.022 654.185 C 22.998 663.580, 23.925 667.181, 27.317 670.882 C 30.190 674.017, 36.677 676.951, 40.795 676.978 C 42.940 676.992, 44.948 677.857, 46.545 679.455 C 47.895 680.805, 49.032 681.367, 49.070 680.705 C 49.109 680.042, 49.527 680.400, 50 681.500 C 50.746 683.236, 50.879 683.104, 51.011 680.500 L 51.163 677.500 52.584 680.750 C 53.366 682.538, 54.444 684, 54.980 684 C 56.315 684, 58.619 680.130, 59.444 676.500 C 59.819 674.850, 61.266 671.838, 62.660 669.807 C 64.053 667.776, 65.262 664.626, 65.346 662.807 L 65.500 659.500 57.891 659.210 C 50.697 658.937, 50.191 659.059, 48.618 661.460 C 46.980 663.960, 44.695 664.588, 41.582 663.393 C 40.311 662.905, 40 661.114, 40 654.276 L 40 645.767 42.500 646.245 C 43.875 646.508, 45 646.335, 45 645.861 C 45 644.153, 47.955 645.047, 49.045 647.085 C 50.534 649.866, 56.497 652.269, 60 651.500 C 66.209 650.136, 67.255 645.141, 62.696 638.624 C 58.718 632.938, 45.901 629.824, 36.849 632.345 M 123.905 631.885 C 119.115 632.884, 114.184 635.864, 111.605 639.320 C 109.813 641.720, 109.456 643.801, 109.201 653.320 C 108.829 667.275, 110.046 670.172, 117.997 674.250 C 120.946 675.763, 124.601 677, 126.120 677 C 127.639 677, 129.175 677.475, 129.534 678.055 C 129.911 678.665, 132.047 678.906, 134.593 678.626 C 138.404 678.207, 139 678.395, 139 680.012 C 139 683.491, 140.831 683.041, 142.064 679.259 C 142.738 677.192, 143.579 675.275, 143.932 675 C 144.285 674.725, 146.020 672.285, 147.787 669.579 C 150.870 664.856, 150.999 664.251, 150.984 654.579 C 150.970 646.028, 150.628 643.893, 148.734 640.500 C 145.006 633.824, 133.595 629.865, 123.905 631.885 M 273.721 632.420 C 265.390 634.661, 260.699 640.884, 261.995 647.974 C 262.840 652.596, 268.821 660.154, 271.082 659.458 C 271.952 659.191, 273.385 659.766, 274.265 660.736 C 275.783 662.408, 275.500 662.483, 268.820 662.163 C 264.944 661.978, 261.343 662.257, 260.818 662.782 C 259.338 664.262, 262.351 670.402, 265.742 672.817 C 268.406 674.713, 272.312 675.978, 280.079 677.460 C 281.566 677.744, 283.144 679.020, 283.807 680.476 C 285.194 683.519, 287.532 683.742, 289.015 680.972 C 289.612 679.857, 290.477 679.177, 290.936 679.461 C 291.396 679.745, 292.098 678.970, 292.495 677.739 C 293.179 675.618, 293.258 675.658, 293.990 678.500 L 294.763 681.500 294.882 678.690 C 294.947 677.145, 296.575 673.817, 298.500 671.296 C 301.457 667.423, 302 665.911, 302 661.543 C 302 653.625, 297.446 649.949, 285.839 648.499 C 279.540 647.712, 277.430 646.732, 278.456 645.071 C 279.211 643.850, 282.565 644.496, 284.809 646.294 C 285.530 646.871, 288.902 647.230, 292.304 647.091 C 302.284 646.684, 303.446 644.176, 296.750 637.499 C 293.477 634.235, 291.281 633.001, 287.201 632.130 C 280.786 630.762, 279.808 630.783, 273.721 632.420 M 363 631.895 C 357.699 633.027, 353.413 635.612, 350.829 639.235 C 348.811 642.065, 348.455 643.917, 348.165 653.123 C 347.736 666.734, 349.323 670.487, 357.162 674.394 C 360.039 675.827, 363.628 677, 365.137 677 C 366.647 677, 368.175 677.475, 368.534 678.055 C 368.911 678.665, 371.047 678.906, 373.593 678.626 C 377.404 678.207, 378 678.395, 378 680.012 C 378 683.494, 379.832 683.040, 381.040 679.259 C 381.701 677.192, 383.261 674.375, 384.506 673 C 389.080 667.952, 390.275 664.108, 390.242 654.536 C 390.199 641.975, 388.281 637.717, 380.990 633.995 C 376.847 631.881, 367.936 630.841, 363 631.895 M 502.002 632.058 C 496.733 633.138, 493.367 635.410, 490.250 639.990 C 488.273 642.895, 488 644.557, 488 653.688 C 488 667.160, 489.727 671.033, 497.307 674.563 C 500.163 675.893, 503.701 676.985, 505.168 676.990 C 509.247 677.005, 510.994 678.003, 511.063 680.357 C 511.124 682.393, 511.174 682.381, 512.082 680.112 C 512.976 677.879, 513.155 677.830, 514.848 679.362 C 517.062 681.366, 518 681.439, 518 679.607 C 518 678.060, 520.688 676.689, 522.060 677.537 C 522.544 677.836, 523.616 676.600, 524.442 674.790 C 525.269 672.981, 526.968 670.232, 528.218 668.682 C 530.057 666.403, 530.560 664.350, 530.852 657.932 L 531.212 650 526.047 650 C 522.858 650, 521.118 649.617, 521.500 649 C 521.840 648.450, 523.554 647.993, 525.309 647.985 C 530.012 647.962, 531.330 646.777, 530.558 643.265 C 528.743 634.999, 514.646 629.467, 502.002 632.058 M 70.667 632.667 C 70.300 633.033, 70 642.606, 70 653.938 L 70 674.544 74.358 679.290 L 78.715 684.037 81.321 680.768 C 83.347 678.226, 84.129 677.801, 84.838 678.857 C 85.475 679.804, 85.956 679.879, 86.434 679.107 C 87.576 677.259, 89.723 677.865, 90.489 680.250 C 91.101 682.156, 91.284 682.232, 91.679 680.750 C 92.386 678.104, 93.814 678.652, 94.284 681.750 L 94.700 684.500 94.850 681.691 C 94.939 680.022, 95.423 679.144, 96.044 679.527 C 96.618 679.882, 97.696 679.668, 98.439 679.051 C 99.182 678.434, 100.174 678.041, 100.645 678.177 C 101.115 678.314, 102.513 677.863, 103.750 677.177 C 105.692 676.100, 106 675.114, 106 669.965 L 106 664 96.500 664 C 89.594 664, 86.986 663.659, 86.949 662.750 C 86.921 662.063, 86.941 655.628, 86.995 648.451 C 87.048 641.274, 86.798 634.637, 86.439 633.701 C 85.908 632.317, 84.440 632, 78.560 632 C 74.585 632, 71.033 632.300, 70.667 632.667 M 156.954 633.250 C 156.928 633.938, 156.949 641.469, 157 649.987 C 157.077 662.839, 157.391 665.985, 158.850 668.483 C 161.105 672.344, 166.229 675.787, 170.862 676.554 C 172.863 676.885, 174.950 677.288, 175.500 677.451 C 176.050 677.613, 176.801 677.690, 177.169 677.623 C 177.538 677.555, 178.982 678.574, 180.379 679.886 L 182.919 682.272 184.106 679.668 C 184.758 678.235, 185.681 677.303, 186.155 677.596 C 187.850 678.643, 190.851 676.873, 191.895 674.209 C 192.479 672.719, 193.979 670.231, 195.229 668.679 C 197.387 665.999, 197.500 665.029, 197.500 649.179 L 197.500 632.500 189.750 632.208 L 182 631.916 182 645.393 C 182 661.265, 181.284 664, 177.132 664 C 175.394 664, 173.969 663.360, 173.607 662.418 C 173.273 661.548, 173 655.060, 173 648 C 173 640.940, 172.727 634.452, 172.393 633.582 C 171.607 631.535, 157.029 631.221, 156.954 633.250 M 204.667 632.667 C 204.300 633.033, 204 637.989, 204 643.680 C 204 649.966, 203.531 654.778, 202.806 655.939 C 201.880 657.422, 201.880 658.441, 202.806 660.473 C 203.463 661.915, 204 665.972, 204 669.490 C 204 674.642, 204.370 676.146, 205.901 677.218 C 206.946 677.950, 207.991 679.663, 208.222 681.025 L 208.643 683.500 209.828 680.669 C 210.479 679.112, 211.522 678.007, 212.144 678.215 C 213.539 678.680, 216.868 686.679, 216.944 689.750 C 217.037 693.506, 218.702 692.267, 219.396 687.925 C 220.035 683.928, 220.120 683.855, 223.758 684.175 C 227.150 684.472, 227.640 684.179, 229.484 680.753 C 231.962 676.147, 232.995 676, 233.015 680.250 C 233.024 682.038, 233.467 684.175, 234 685 C 234.709 686.096, 234.973 685.339, 234.985 682.183 C 234.997 678.572, 235.726 676.974, 239.430 672.426 C 242.708 668.403, 244.169 665.504, 245.044 661.288 C 246.376 654.872, 245.691 646.237, 243.517 642.033 C 241.509 638.149, 236.633 634.270, 232.219 633.044 C 228.129 631.908, 205.732 631.601, 204.667 632.667 M 304.687 632.646 C 304.309 633.024, 304 635.889, 304 639.012 C 304 643.420, 304.447 645.095, 306 646.500 C 307.100 647.495, 308 648.970, 308 649.777 C 308 650.908, 308.315 650.983, 309.373 650.105 C 310.129 649.478, 311.433 649.229, 312.272 649.551 C 313.111 649.873, 314.095 649.656, 314.458 649.068 C 316.496 645.771, 317.122 648.889, 316.917 661.304 C 316.730 672.640, 316.962 675.012, 318.485 677.336 C 320.171 679.909, 320.376 679.969, 322.117 678.394 C 323.856 676.820, 324.017 676.861, 324.918 679.112 C 325.600 680.818, 325.891 681.006, 325.937 679.769 C 325.974 678.737, 327.111 677.766, 328.750 677.365 C 330.262 676.995, 331.831 676.199, 332.235 675.596 C 332.639 674.993, 332.994 668.200, 333.024 660.500 L 333.078 646.500 335.639 650.747 C 337.047 653.083, 338.604 654.745, 339.098 654.439 C 339.592 654.134, 341.146 651.453, 342.552 648.482 C 344.504 644.355, 345.036 641.832, 344.804 637.790 L 344.500 632.500 324.937 632.229 C 314.178 632.081, 305.065 632.268, 304.687 632.646 M 396.448 633.276 C 396.178 633.978, 396.080 643.990, 396.229 655.526 L 396.500 676.500 400.500 676.817 C 402.700 676.991, 404.928 677.554, 405.450 678.067 C 408.733 681.291, 411.926 677.269, 411.968 669.857 C 411.990 665.954, 412.434 664.048, 413.406 663.674 C 414.754 663.157, 415.528 664.557, 420.731 676.921 C 421.843 679.565, 422.378 680.020, 423.085 678.921 C 423.807 677.800, 424.172 677.766, 424.816 678.762 C 425.459 679.756, 426.351 679.774, 429.011 678.846 C 431.579 677.951, 432.483 677.948, 432.778 678.834 C 433.434 680.802, 434.700 680.138, 435.924 677.183 C 436.936 674.741, 436.754 673.774, 434.558 669.933 C 433.164 667.495, 432.019 664.525, 432.012 663.333 C 432.005 662.142, 431.547 661.016, 430.993 660.831 C 430.439 660.646, 431.167 658.837, 432.609 656.809 C 439.007 647.818, 435.450 636.605, 425.101 633.139 C 420.226 631.506, 397.084 631.617, 396.448 633.276 M 453.278 633.213 C 452.713 633.921, 449.927 641.250, 447.087 649.500 C 444.247 657.750, 441.014 666.972, 439.902 669.993 C 437.902 675.432, 437.901 675.502, 439.828 677.062 C 440.899 677.929, 442.693 680.437, 443.814 682.636 C 444.936 684.835, 446.554 687.215, 447.410 687.926 C 448.736 689.026, 449.118 688.821, 449.983 686.544 C 450.543 685.073, 451.018 683.337, 451.040 682.685 C 451.062 682.033, 452.075 679.249, 453.290 676.498 C 455.322 671.899, 455.685 671.577, 457.796 672.498 C 459.337 673.171, 460.444 674.897, 461.165 677.750 C 461.755 680.087, 462.659 682, 463.174 682 C 463.689 682, 465.046 679.750, 466.189 677 C 468.171 672.231, 470 670.473, 470 673.337 C 470 674.073, 471.800 676.567, 474 678.879 C 476.200 681.192, 478 683.515, 478 684.042 C 478 686.230, 480.750 684.767, 482.309 681.750 C 483.232 679.962, 484.530 677.745, 485.193 676.822 C 486.181 675.447, 485.426 672.284, 481.011 659.322 C 478.048 650.620, 474.670 641.025, 473.504 638 L 471.385 632.500 462.846 632.213 C 456.791 632.010, 454.007 632.301, 453.278 633.213 M 536.667 632.667 C 536.300 633.033, 536 642.462, 536 653.620 C 536 674.047, 536.721 679, 539.693 679 C 540.447 679, 541.471 680.013, 541.969 681.250 C 542.790 683.292, 542.879 683.200, 542.937 680.250 C 542.999 677.060, 544.256 675.987, 545.525 678.041 C 545.879 678.613, 547.027 678.809, 548.076 678.476 C 549.476 678.031, 550.295 678.553, 551.152 680.435 C 551.795 681.846, 553.149 683, 554.161 683 C 555.172 683, 556.020 683.563, 556.044 684.250 C 556.069 684.938, 557.008 683.756, 558.133 681.624 C 559.959 678.162, 560.338 677.910, 561.692 679.264 C 562.526 680.097, 563.565 682.291, 564.001 684.139 C 564.762 687.360, 564.800 687.383, 564.898 684.691 C 564.954 683.146, 565.410 682.136, 565.912 682.446 C 566.414 682.756, 568.238 681.225, 569.966 679.043 C 572.733 675.549, 573.071 674.447, 572.804 669.788 L 572.500 664.500 562.250 664.215 C 552.761 663.951, 552 663.781, 552 661.930 C 552 660.208, 552.292 660.086, 554.098 661.052 C 557.657 662.957, 562.745 663.086, 567.013 661.378 L 571.092 659.746 570.796 654.123 L 570.500 648.500 561.250 648.212 C 553.931 647.985, 552 647.620, 552 646.462 C 552 644.702, 552.209 644.683, 555.406 646.139 C 557.295 647, 559.447 646.977, 564.203 646.045 C 572.009 644.517, 573 643.718, 573 638.959 C 573 631.743, 573.682 632, 554.560 632 C 545.085 632, 537.033 632.300, 536.667 632.667 M 412.187 647.250 C 412.444 649.923, 412.924 650.500, 414.891 650.500 C 417.656 650.500, 419.601 648.010, 418.691 645.636 C 418.296 644.609, 416.911 644, 414.968 644 C 412.079 644, 411.894 644.216, 412.187 647.250 M 125.531 646.779 C 123.603 651.804, 126.302 665, 129.258 665 C 132.784 665, 134.226 662.420, 134.561 655.513 C 134.743 651.748, 134.474 647.886, 133.964 646.932 C 132.828 644.810, 126.332 644.692, 125.531 646.779 M 220 654.683 L 220 664 223.465 664 C 228.051 664, 229.169 661.742, 228.795 653.231 L 228.500 646.500 224.250 645.933 L 220 645.366 220 654.683 M 364.575 647.460 C 363.716 650.658, 363.916 656.156, 365.037 660.192 C 366.220 664.453, 369.350 666.078, 371.751 663.677 C 373.531 661.898, 374.534 653.662, 373.587 648.611 C 372.962 645.282, 372.737 645.116, 369.027 645.264 C 366.018 645.384, 364.998 645.888, 364.575 647.460 M 505.163 646.237 C 504.507 646.893, 504 650.363, 504 654.200 C 504 659.667, 504.392 661.392, 506 663 C 508.542 665.542, 510.187 665.522, 513.139 662.916 C 514.633 661.598, 514.902 661.018, 513.872 661.338 C 511.284 662.142, 510 659.974, 510 654.800 L 510 650 513.674 650 L 517.349 650 515.151 647.661 C 512.739 645.093, 507.110 644.290, 505.163 646.237 M 461.703 649 C 459.900 654.133, 459.044 657.378, 459.399 657.733 C 459.624 657.957, 461.131 657.997, 462.749 657.821 L 465.689 657.500 463.960 652.500 C 462.923 649.503, 462.019 648.101, 461.703 649 M 279 662.956 L 276.500 663.713 279.178 664.447 C 282.127 665.255, 286 664.395, 286 662.933 C 286 661.852, 282.609 661.864, 279 662.956 M 521.531 681.293 C 521.103 682.279, 521.034 683.367, 521.376 683.710 C 522.392 684.725, 523.211 683.299, 522.743 681.328 C 522.329 679.581, 522.275 679.580, 521.531 681.293 M 552 688 C 552 689.100, 552.450 690, 553 690 C 553.550 690, 554 689.100, 554 688 C 554 686.900, 553.550 686, 553 686 C 552.450 686, 552 686.900, 552 688" stroke="none" fill="#434242" fill-rule="evenodd"/></svg>