<svg xmlns="http://www.w3.org/2000/svg" width="900" height="200" viewBox="0 0 900 200" version="1.1"><path d="M 17.481 100 C 17.481 155.275, 17.602 177.887, 17.750 150.250 C 17.898 122.612, 17.898 77.387, 17.750 49.750 C 17.602 22.112, 17.481 44.725, 17.481 100 M 220.481 100 C 220.481 155.275, 220.602 177.887, 220.750 150.250 C 220.898 122.612, 220.898 77.387, 220.750 49.750 C 220.602 22.112, 220.481 44.725, 220.481 100 M 87.247 21.750 C 87.770 34.753, 89.093 41.248, 90.507 37.750 C 90.896 36.787, 90.955 35.325, 90.638 34.500 C 90.322 33.675, 90.499 33, 91.031 33 C 91.564 33, 92 31.677, 92 30.059 C 92 28.441, 92.468 26.829, 93.041 26.475 C 93.613 26.121, 93.808 24.970, 93.473 23.916 C 92.526 20.931, 94.268 21.672, 96.743 25.308 C 99.579 29.474, 111.696 42, 112.890 42 C 113.383 42, 114.045 42.675, 114.362 43.500 C 115.222 45.742, 114.586 45.414, 108.553 40.500 C 102.232 35.351, 98.308 34.680, 95.039 38.189 C 92.366 41.057, 92.466 42, 95.441 42 C 99.196 42, 99.415 43.751, 95.759 44.542 C 93.966 44.929, 90.377 46.316, 87.783 47.623 C 82.575 50.247, 80.974 50.626, 82.800 48.800 C 83.460 48.140, 84 47.127, 84 46.550 C 83.999 45.972, 81.635 47.975, 78.746 51 C 75.857 54.025, 70.624 58.940, 67.118 61.923 C 55.267 72.002, 48.200 84.384, 45.923 99.058 C 45.317 102.961, 45.020 106.353, 45.262 106.596 C 46.418 107.752, 51.158 98.681, 52.146 93.422 C 53.928 83.938, 55.614 79.420, 59.627 73.375 C 65.400 64.678, 82.068 51.745, 83.200 55.085 C 83.365 55.572, 85.147 55.463, 87.162 54.844 C 89.176 54.225, 91.651 54.055, 92.662 54.465 C 94.111 55.054, 93.531 55.503, 89.923 56.586 C 87.406 57.341, 84.481 58.934, 83.423 60.125 C 81.520 62.268, 81.521 62.280, 83.500 61.262 C 86.574 59.680, 94 58.661, 94 59.822 C 94 60.370, 95.934 60.790, 98.298 60.754 C 103.176 60.681, 106.723 62.626, 110.280 67.324 C 114.649 73.098, 114.491 78.921, 110.078 74.750 C 108.986 73.718, 108.957 73.893, 109.913 75.750 C 111.090 78.039, 111.468 78.222, 115 78.222 C 118.145 78.222, 118.204 78.129, 116.557 75.777 C 114.435 72.748, 114.417 70.271, 116.530 72.025 C 117.699 72.995, 118.641 73.029, 120.530 72.168 C 123.332 70.892, 123.679 71.720, 121.532 74.559 C 119.148 77.711, 119.658 78.948, 123.158 78.505 C 126.210 78.119, 128.038 76.577, 127.906 74.500 C 127.871 73.950, 127.615 74.063, 127.338 74.750 C 127.060 75.438, 126.187 76, 125.398 76 C 121.949 76, 127.340 65.973, 132.664 62.485 C 134.389 61.354, 136.733 60.930, 139.976 61.160 C 143.687 61.424, 144.632 61.197, 144.224 60.138 C 143.714 58.813, 146.339 58.978, 152.250 60.642 C 153.213 60.913, 154 60.706, 154 60.181 C 154 58.997, 147.835 56, 145.399 56 C 144.055 56, 143.887 55.713, 144.738 54.862 C 145.530 54.070, 147.030 54.008, 149.688 54.659 C 154.438 55.823, 157.330 55.302, 156.605 53.413 C 156.307 52.636, 156.185 52, 156.333 52 C 156.482 52, 161.306 56.613, 167.052 62.250 C 178.898 73.871, 183.208 80.787, 184.993 91.036 C 185.981 96.713, 191.339 107.994, 192.497 106.836 C 192.699 106.634, 192.482 103.390, 192.016 99.626 C 191.411 94.748, 189.842 90.042, 186.552 83.238 C 182.274 74.389, 180.952 72.719, 168.436 60.346 C 161.010 53.006, 154.634 47, 154.267 47 C 153.900 47, 154.140 47.540, 154.800 48.200 C 157.286 50.686, 155.851 50.798, 151.750 48.439 C 149.412 47.094, 145.813 45.527, 143.750 44.958 C 141.688 44.389, 140 43.438, 140 42.845 C 140 42.248, 140.921 42.008, 142.061 42.306 C 144.724 43.002, 145.809 40.381, 143.723 38.294 C 141.081 35.652, 135.575 35.655, 132.343 38.299 C 130.779 39.578, 127.985 41.677, 126.134 42.963 C 123.112 45.062, 122.875 45.101, 123.815 43.345 C 124.391 42.269, 126.471 40.523, 128.437 39.464 C 130.403 38.405, 132.251 36.855, 132.545 36.019 C 133.479 33.357, 144.975 21.327, 144.378 23.637 C 144.074 24.813, 144.315 26.077, 144.913 26.446 C 145.511 26.816, 146 28.018, 146 29.118 C 146 30.328, 146.438 30.847, 147.109 30.432 C 147.893 29.948, 148.014 30.957, 147.521 33.873 C 146.477 40.056, 148.660 39.017, 149.883 32.750 C 150.803 28.034, 151.888 8.998, 151.236 8.999 C 151.091 9, 148.522 10.996, 145.527 13.435 C 142.532 15.874, 137.251 19.761, 133.791 22.073 C 130.331 24.384, 126.037 27.652, 124.250 29.334 C 119.513 33.792, 120.271 30.750, 125.250 25.322 C 129.932 20.218, 127.295 20.896, 122.201 26.106 L 119.048 29.331 116.936 26.645 C 115.774 25.168, 113.401 23.228, 111.662 22.333 C 108.564 20.739, 108.585 20.799, 112.750 25.331 C 117.730 30.749, 118.485 33.783, 113.750 29.348 C 111.963 27.674, 106.928 23.873, 102.561 20.902 C 98.195 17.931, 93.070 14.038, 91.172 12.250 C 89.273 10.462, 87.498 9, 87.227 9 C 86.956 9, 86.965 14.738, 87.247 21.750 M 695.500 42.500 C 695.500 59.720, 695.837 73.600, 696.250 73.345 C 696.663 73.091, 697 59.210, 697 42.500 C 697 25.790, 696.663 11.909, 696.250 11.655 C 695.837 11.400, 695.500 25.280, 695.500 42.500 M 871.999 40.799 L 872.498 70.500 872.765 41.566 C 872.911 25.652, 872.687 12.286, 872.266 11.864 C 871.845 11.443, 871.725 24.463, 871.999 40.799 M 850.360 22 C 850.360 27.225, 850.529 29.363, 850.735 26.750 C 850.941 24.137, 850.941 19.862, 850.735 17.250 C 850.529 14.637, 850.360 16.775, 850.360 22 M 135.834 27.226 C 132.944 30.888, 132.841 31.195, 135.057 29.532 C 138.200 27.173, 141.442 23, 140.131 23 C 139.601 23, 137.668 24.902, 135.834 27.226 M 99.881 26.720 C 102.177 30.062, 103.832 31.501, 104.552 30.782 C 104.782 30.552, 103.327 28.819, 101.319 26.932 L 97.669 23.500 99.881 26.720 M 760.667 28.667 C 760.300 29.033, 760 36.473, 760 45.199 C 760 56.791, 760.390 61.998, 761.449 64.532 C 762.246 66.439, 763.123 68, 763.398 68 C 763.673 68, 763.225 66.390, 762.403 64.422 C 761.235 61.626, 760.973 57.255, 761.204 44.421 C 761.367 35.388, 761.462 27.998, 761.417 27.999 C 761.371 27.999, 761.033 28.300, 760.667 28.667 M 791.436 29.305 C 791.161 30.023, 791.065 36.211, 791.223 43.055 L 791.510 55.500 792.005 41.748 C 792.277 34.185, 792.373 27.997, 792.219 27.998 C 792.064 27.999, 791.712 28.587, 791.436 29.305 M 812.998 49.798 L 813.496 71.500 813.769 50.571 C 813.919 39.060, 813.695 29.294, 813.271 28.869 C 812.847 28.444, 812.724 37.862, 812.998 49.798 M 67.486 31.399 C 69.949 33.370, 70.453 34.484, 70.367 37.767 C 70.223 43.284, 65.623 51.322, 60.773 54.532 C 56.271 57.511, 56.294 58.933, 60.807 56.600 C 67.207 53.290, 73 43.868, 73 36.769 C 73 33.434, 69.388 28.999, 66.677 29.005 C 64.665 29.010, 64.727 29.191, 67.486 31.399 M 166.557 31.223 C 161.907 37.860, 167.278 51.929, 176.250 56.615 C 180.085 58.618, 179.683 57.612, 174.935 53.323 C 170.017 48.879, 168.417 45.962, 167.483 39.735 C 166.944 36.141, 167.162 34.401, 168.386 32.533 C 170.243 29.700, 170.376 29, 169.057 29 C 168.538 29, 167.413 30, 166.557 31.223 M 707.809 33.750 C 704.891 36.879, 702.982 40.255, 703.039 42.184 C 703.061 42.908, 703.760 41.925, 704.594 40 C 705.428 38.075, 707.295 35.263, 708.742 33.750 C 710.190 32.237, 711.149 31, 710.874 31 C 710.599 31, 709.220 32.237, 707.809 33.750 M 608.382 43.500 C 608.384 50.100, 608.546 52.670, 608.741 49.211 C 608.937 45.752, 608.936 40.352, 608.738 37.211 C 608.540 34.070, 608.380 36.900, 608.382 43.500 M 632.370 43 C 632.370 48.775, 632.535 51.138, 632.737 48.250 C 632.939 45.362, 632.939 40.638, 632.737 37.750 C 632.535 34.862, 632.370 37.225, 632.370 43 M 76.189 42.039 C 74.985 43.160, 74 44.301, 74 44.574 C 74 45.397, 77.573 43.220, 78.955 41.555 C 80.837 39.287, 78.750 39.652, 76.189 42.039 M 103.345 45.829 C 105.690 48.420, 105.452 48.757, 101.500 48.444 C 96.535 48.050, 96.906 50.628, 102.013 52.004 C 104.220 52.598, 107.542 54.415, 109.395 56.042 C 113.545 59.685, 116.428 60.020, 115.489 56.750 C 114.737 54.129, 104.762 44, 102.933 44 C 102.093 44, 102.226 44.592, 103.345 45.829 M 130.849 46.787 C 126.564 49.971, 123.421 54.316, 122.403 58.464 L 121.676 61.428 127.002 57.187 C 129.932 54.854, 134.227 52.468, 136.548 51.884 C 140.001 51.014, 140.674 50.471, 140.261 48.890 C 139.908 47.538, 139.401 47.252, 138.576 47.937 C 137.927 48.476, 136.389 48.653, 135.158 48.331 C 133.038 47.777, 133.009 47.647, 134.615 45.873 C 137.071 43.159, 135.081 43.642, 130.849 46.787 M 702.336 51 C 702.336 55.125, 702.513 56.813, 702.728 54.750 C 702.944 52.688, 702.944 49.313, 702.728 47.250 C 702.513 45.188, 702.336 46.875, 702.336 51 M 732.320 51 C 732.320 54.575, 732.502 56.038, 732.723 54.250 C 732.945 52.462, 732.945 49.538, 732.723 47.750 C 732.502 45.962, 732.320 47.425, 732.320 51 M 842.300 51 C 842.300 54.025, 842.487 55.263, 842.716 53.750 C 842.945 52.237, 842.945 49.763, 842.716 48.250 C 842.487 46.737, 842.300 47.975, 842.300 51 M 99.500 64 C 99.840 64.550, 100.748 65, 101.517 65 C 102.286 65, 104.809 66.801, 107.123 69.002 C 109.436 71.203, 111.491 72.842, 111.688 72.645 C 112.722 71.611, 110.289 68.752, 106.074 66.047 C 101.366 63.027, 98.310 62.075, 99.500 64 M 135 64.318 C 129.580 67.149, 127 69.309, 127 71.015 C 127 72.444, 127.648 72.168, 130.250 69.630 C 132.037 67.887, 134.625 65.705, 136 64.783 C 139.008 62.764, 138.461 62.510, 135 64.318 M 704.004 63.673 C 703.998 65.345, 708.819 70.854, 711.358 72.078 C 712.696 72.723, 712.424 72.276, 710.633 70.886 C 709.055 69.663, 706.920 67.276, 705.886 65.581 C 704.853 63.886, 704.006 63.028, 704.004 63.673 M 47.404 68.768 C 44.468 72.308, 39.656 80.618, 41.769 78.500 C 43.681 76.584, 52 66.025, 52 65.514 C 52 64.124, 50.199 65.399, 47.404 68.768 M 186.128 66.847 C 193.365 76.589, 195.247 79, 195.614 79 C 196.458 79, 192.040 71.201, 189.459 68.134 C 186.656 64.802, 183.785 63.693, 186.128 66.847 M 73.150 69.006 C 68.798 72.159, 68.178 73.010, 70.250 72.985 C 71.825 72.966, 79.894 66.089, 78.400 66.038 C 77.795 66.017, 75.433 67.353, 73.150 69.006 M 79.782 71.965 C 72.786 75.155, 65.365 78.084, 63.289 78.474 C 57.499 79.560, 57.045 80.449, 62 81 L 66.500 81.500 66.762 118.606 L 67.024 155.711 63.145 158.399 C 58.906 161.337, 54.181 166, 55.444 166 C 55.879 166, 57.656 164.753, 59.392 163.229 C 61.128 161.705, 66.212 158.552, 70.690 156.222 C 79.290 151.748, 79.935 151.708, 86.813 155.223 C 88.827 156.252, 101.176 170.094, 103.431 173.850 C 105.168 176.743, 100.045 172.939, 96.850 168.963 C 93.752 165.108, 84.086 157, 82.588 157 C 81.814 157, 86.665 163.057, 93.887 171.109 C 96.300 173.799, 97.851 176, 97.334 176 C 96.269 176, 89.138 171, 84.215 166.801 C 78.744 162.136, 78.139 163.745, 83.500 168.704 C 90.039 174.751, 98.824 180.405, 105.854 183.092 C 113.615 186.057, 129.320 186.920, 133.759 184.625 C 135.487 183.731, 139.179 182.512, 141.965 181.914 C 147.182 180.795, 156.650 175.137, 160.924 170.583 C 164.657 166.606, 162.417 167.502, 155.122 172.904 C 150.235 176.523, 147.583 177.819, 145 177.851 C 143.075 177.875, 139.928 178.368, 138.007 178.947 C 133.785 180.219, 128 180.329, 128 179.137 C 128 178.662, 130.588 177.500, 133.750 176.555 C 141.202 174.327, 145.581 172.081, 148.305 169.090 C 150.370 166.822, 150.382 166.727, 148.500 167.475 C 136.100 172.403, 128.334 173.186, 121.922 170.156 C 119.490 169.007, 116.375 167.284, 115 166.329 L 112.500 164.591 114.921 167.292 C 116.252 168.777, 117.047 170.287, 116.687 170.646 C 115.474 171.859, 104.061 158.822, 101.386 153.168 C 98.554 147.180, 97.259 137.766, 98.418 131.588 C 98.854 129.262, 100.490 126.643, 103.032 124.200 L 106.971 120.415 104.930 116.608 C 102.995 112.999, 102.981 112.735, 104.645 111.517 C 107.275 109.595, 109.206 111.304, 114.076 119.864 C 118.324 127.330, 118.352 127.355, 119.922 125.046 C 122.552 121.178, 129.068 109.616, 129.669 107.750 C 130.465 105.280, 131.850 105.578, 133.184 108.504 C 134.200 110.734, 133.512 112.620, 126.912 125.714 C 122.836 133.802, 119.031 140.556, 118.457 140.724 C 117.884 140.891, 115.640 137.389, 113.471 132.941 C 109.813 125.438, 107 121.424, 107 123.707 C 107 124.758, 117.942 146, 118.483 146 C 118.668 146, 120.617 142.513, 122.812 138.250 C 125.008 133.988, 131.348 121.764, 136.902 111.087 C 142.456 100.410, 147 90.712, 147 89.537 C 147 86.883, 145.206 85, 142.678 85 C 141.082 85, 140.967 84.745, 142 83.500 C 143.682 81.473, 146.338 81.611, 148.345 83.829 C 149.743 85.374, 150 88.198, 150 102.029 C 150 111.804, 150.364 118.017, 150.903 117.450 C 151.400 116.928, 151.965 115.617, 152.159 114.537 C 152.426 113.060, 153.392 114.051, 156.068 118.543 C 162.265 128.945, 165.199 136.108, 165.749 142.171 C 166.325 148.522, 167.466 149.708, 168.495 145.025 C 169.175 141.925, 171.009 141.416, 172.180 144 C 173.005 145.821, 173.230 159, 172.435 159 C 172.125 159, 169.627 158.035, 166.884 156.855 C 162.949 155.162, 162.066 154.371, 162.699 153.105 C 165.219 148.057, 161.994 133.013, 156.839 125.774 C 153.635 121.274, 153.662 123.106, 156.902 129.957 C 160.865 138.336, 162.915 149.513, 160.866 151.563 C 158.814 153.615, 153.198 151.637, 152.434 148.592 C 152.129 147.378, 152.033 140.668, 152.221 133.682 C 152.448 125.257, 152.215 121.094, 151.531 121.322 C 150.906 121.529, 150.391 127.230, 150.223 135.821 L 149.945 149.977 146.880 151.562 C 143.092 153.521, 143.608 154.381, 147.712 152.950 C 150.403 152.012, 152.103 152.487, 162.625 157.112 C 169.156 159.983, 176.040 163.464, 177.921 164.847 C 181.349 167.368, 181.319 166.303, 177.852 162.437 C 176.310 160.717, 175.944 158.306, 175.652 147.937 C 175.248 133.629, 174.712 131.759, 165.470 112.399 C 161.979 105.087, 158.648 97.393, 158.067 95.302 C 154.887 83.849, 159.066 75.856, 165.777 80.557 C 168.344 82.355, 168.664 85.204, 166.500 87 C 163.636 89.377, 164.734 93.113, 169.639 97.680 C 172.190 100.056, 174.665 102, 175.139 102 C 175.612 102, 176 98.467, 176 94.148 C 176 81.894, 173.587 79.382, 153 70.205 C 142.358 65.461, 138.968 64.784, 143.328 68.273 L 146.157 70.537 135.976 90.518 C 125.374 111.327, 119.082 123, 118.468 123 C 118.062 123, 111.167 110.062, 99.036 86.534 L 90.804 70.568 93.652 68.289 C 98.599 64.330, 93.643 65.644, 79.782 71.965 M 157 66.288 C 157 66.901, 168.679 75, 169.564 75 C 170.603 75, 167.017 71.148, 164 69.023 C 161.487 67.253, 157 65.500, 157 66.288 M 788.712 74.440 C 786.670 76.883, 785 79.175, 785 79.535 C 785 79.895, 786.521 78.368, 788.381 76.142 C 790.241 73.917, 792.041 72.374, 792.381 72.714 C 792.721 73.055, 793 72.583, 793 71.667 C 793 70.750, 792.870 70, 792.712 70 C 792.553 70, 790.753 71.998, 788.712 74.440 M 675.650 74 C 676.089 74.825, 676.737 77.525, 677.090 80 L 677.733 84.500 677.902 80 C 678.068 75.575, 678.095 75.542, 679.500 78 C 680.286 79.375, 680.945 80.024, 680.965 79.441 C 680.984 78.859, 680.339 77.509, 679.532 76.441 C 678.724 75.374, 678.049 74.924, 678.032 75.441 C 678.014 75.959, 677.292 75.509, 676.426 74.441 C 675.560 73.374, 675.211 73.175, 675.650 74 M 736 79 C 735.850 81.262, 735.598 81.793, 735.287 80.500 C 734.481 77.150, 733.308 76.735, 733.782 79.969 C 734.328 83.688, 735.252 83.790, 737.489 80.377 C 738.434 78.934, 738.745 78.040, 738.179 78.389 C 737.614 78.739, 736.945 78.231, 736.692 77.262 C 736.439 76.293, 736.128 77.075, 736 79 M 796.489 77.018 C 795.983 77.836, 796.088 78.064, 796.773 77.640 C 797.369 77.272, 798.144 77.877, 798.495 78.985 C 798.847 80.093, 799.914 81, 800.867 81 C 801.820 81, 803.175 81.563, 803.878 82.250 C 804.581 82.938, 804.334 82.040, 803.328 80.255 C 801.973 77.850, 801.407 77.444, 801.142 78.687 C 800.838 80.107, 800.515 80.008, 799.035 78.046 C 797.718 76.300, 797.089 76.047, 796.489 77.018 M 862.211 78.538 C 860.651 80.306, 862.090 80.510, 863.833 78.767 C 864.810 77.790, 865.187 77.998, 865.649 79.767 C 866.337 82.397, 869.036 82.795, 868.921 80.250 C 868.869 79.093, 868.663 78.948, 868.314 79.820 C 867.930 80.782, 867.393 80.578, 866.337 79.070 C 864.638 76.645, 863.957 76.558, 862.211 78.538 M 81.574 85.754 C 80.514 88.364, 79.238 90.776, 78.737 91.113 C 78.226 91.457, 77.811 104.401, 77.791 120.613 L 77.757 149.500 84.192 152.639 C 89.164 155.065, 92.470 157.793, 98.735 164.639 C 103.194 169.513, 108.341 174.367, 110.171 175.427 L 113.500 177.354 109.449 172.915 C 101.366 164.058, 92.983 150.008, 93.092 145.500 C 93.120 144.351, 93.750 145.202, 94.572 147.500 C 96.499 152.885, 98.171 156, 99.133 156 C 99.571 156, 99.011 153.863, 97.890 151.250 C 96.769 148.637, 95.474 143.148, 95.014 139.052 C 94.199 131.807, 94.257 131.487, 97.136 127.302 C 98.764 124.936, 100.412 122.986, 100.798 122.968 C 102.517 122.890, 105.428 119.879, 104.431 119.211 C 103.578 118.639, 95.467 103.632, 85.265 83.750 C 84.489 82.237, 83.774 81.002, 83.677 81.004 C 83.580 81.006, 82.633 83.143, 81.574 85.754 M 53.427 98.151 C 51.938 101.093, 49.095 105.349, 47.108 107.609 C 37.209 118.870, 36.981 136.483, 46.592 147.500 L 49.209 150.500 47.410 147.500 C 42.137 138.708, 40.699 131.176, 43.147 125.176 C 44.478 121.912, 44.500 121.968, 44.529 128.680 C 44.552 134.051, 45.179 136.859, 47.481 141.895 C 50.874 149.319, 52.043 148.721, 49.038 141.098 C 44.676 130.031, 46.419 123.247, 57.511 108.102 C 61.155 103.127, 60.725 100.879, 56.881 104.810 C 55.166 106.565, 53.411 108, 52.982 108 C 52.552 108, 53.311 104.806, 54.669 100.902 C 56.027 96.998, 56.912 93.578, 56.636 93.303 C 56.360 93.027, 54.916 95.208, 53.427 98.151 M 182 96.417 C 182 97.196, 182.900 99.934, 184 102.500 C 185.100 105.066, 186 107.354, 186 107.583 C 186 108.746, 183.947 107.723, 181.855 105.517 C 180.560 104.152, 179.162 103.027, 178.750 103.017 C 176.989 102.977, 178.390 105.916, 183.031 112 C 189.252 120.156, 191.434 126.368, 190.719 133.888 C 190.426 136.975, 189.882 140.400, 189.511 141.500 C 188.856 143.444, 188.880 143.447, 190.377 141.615 C 192.283 139.284, 193.317 132.791, 192.852 126.078 C 192.402 119.581, 193.455 119.560, 195.008 126.035 C 196.342 131.595, 195.656 138.831, 193.378 143.237 C 192.592 144.757, 192.210 146, 192.530 146 C 192.849 146, 194.266 143.477, 195.678 140.393 C 200.269 130.364, 197.881 115.629, 190.256 106.945 C 188.588 105.045, 186.228 101.580, 185.011 99.245 C 182.666 94.746, 182 94.121, 182 96.417 M 565.343 109.500 C 565.346 113.900, 565.522 115.576, 565.733 113.224 C 565.945 110.872, 565.942 107.272, 565.727 105.224 C 565.512 103.176, 565.339 105.100, 565.343 109.500 M 153.992 106.510 C 152.933 107.785, 152.938 108.516, 154.018 110.534 C 154.744 111.890, 155.712 113, 156.169 113 C 156.626 113, 157.014 113.563, 157.032 114.250 C 157.049 114.938, 157.771 116.400, 158.635 117.500 C 160.161 119.442, 160.185 119.427, 159.467 117 C 159.059 115.625, 157.650 113.212, 156.334 111.638 C 154.445 109.379, 154.188 108.479, 155.113 107.364 C 155.758 106.587, 156.060 105.727, 155.785 105.452 C 155.510 105.177, 154.703 105.653, 153.992 106.510 M 496.095 116.618 C 495.040 120.439, 495.602 127.636, 497.023 128.514 C 497.442 128.773, 497.372 127.150, 496.868 124.908 C 496.291 122.338, 496.320 119.499, 496.949 117.222 C 497.497 115.237, 497.766 113.432, 497.546 113.212 C 497.326 112.992, 496.673 114.525, 496.095 116.618 M 69.659 124.188 C 69.303 128.760, 69.009 137.338, 69.006 143.250 C 69 154.557, 69.443 155.494, 73.384 152.510 C 75.113 151.201, 75.252 149.701, 75.071 134.344 C 74.873 117.550, 74.500 114.624, 72.875 117.143 C 72.157 118.256, 71.848 118.264, 71.153 117.188 C 70.632 116.381, 70.057 119.073, 69.659 124.188 M 53.687 124.183 C 51.659 128.343, 50.034 132.590, 50.076 133.623 C 50.128 134.908, 50.525 134.554, 51.334 132.500 C 51.984 130.850, 53.776 127.102, 55.315 124.171 C 56.854 121.240, 57.947 118.342, 57.744 117.731 C 57.540 117.120, 55.714 120.024, 53.687 124.183 M 179.571 119 C 180.317 121.764, 186.222 132.112, 186.751 131.582 C 187.285 131.048, 182.386 120.695, 180.560 118.500 C 178.930 116.540, 178.910 116.550, 179.571 119 M 556.417 118.355 C 556.131 119.101, 556.039 122.588, 556.212 126.105 L 556.527 132.500 557.013 124.748 C 557.500 116.990, 557.391 115.817, 556.417 118.355 M 599.500 125 C 599.500 129.295, 599.837 132.600, 600.250 132.345 C 600.663 132.091, 601 128.785, 601 125 C 601 121.215, 600.663 117.909, 600.250 117.655 C 599.837 117.400, 599.500 120.705, 599.500 125 M 713.306 123.250 C 710.074 126.655, 708.364 130.489, 709.709 131.320 C 710.144 131.588, 710.568 130.681, 710.650 129.304 C 710.733 127.927, 712.284 125.271, 714.097 123.400 C 715.909 121.530, 717.167 120, 716.892 120 C 716.617 120, 715.004 121.463, 713.306 123.250 M 664.201 141.691 C 664.091 153.346, 664.337 163.092, 664.750 163.348 C 665.163 163.604, 665.383 157.443, 665.241 149.657 C 664.756 123.165, 664.403 120.458, 664.201 141.691 M 817.349 131 C 817.349 135.675, 817.522 137.588, 817.732 135.250 C 817.943 132.912, 817.943 129.088, 817.732 126.750 C 817.522 124.412, 817.349 126.325, 817.349 131 M 846.625 129.798 C 846.314 130.300, 847.172 130.499, 848.530 130.239 C 850.527 129.857, 851 130.172, 851 131.883 C 851 133.455, 850.378 134, 848.583 134 C 847.254 134, 845.938 133.539, 845.658 132.975 C 845.379 132.411, 845.263 132.524, 845.402 133.225 C 845.541 133.926, 847.115 134.643, 848.900 134.819 C 851.931 135.116, 852.125 134.951, 851.823 132.319 C 851.594 130.323, 850.871 129.410, 849.344 129.193 C 848.159 129.024, 846.935 129.296, 846.625 129.798 M 605.349 141 C 605.349 145.675, 605.522 147.588, 605.732 145.250 C 605.943 142.912, 605.943 139.088, 605.732 136.750 C 605.522 134.412, 605.349 136.325, 605.349 141 M 564.425 138.750 C 564.041 141.363, 563.340 144.538, 562.867 145.807 C 562.312 147.295, 562.360 147.896, 563.003 147.498 C 563.551 147.159, 564.053 146.121, 564.118 145.191 C 564.183 144.261, 564.580 144.850, 565 146.500 C 565.561 148.704, 565.795 147.443, 565.882 141.750 C 565.947 137.488, 565.803 134, 565.561 134 C 565.320 134, 564.809 136.137, 564.425 138.750 M 763.310 139.500 C 763.315 142.800, 763.502 144.029, 763.725 142.232 C 763.947 140.435, 763.943 137.735, 763.715 136.232 C 763.486 134.729, 763.304 136.200, 763.310 139.500 M 635.310 140.500 C 635.315 143.800, 635.502 145.029, 635.725 143.232 C 635.947 141.435, 635.943 138.735, 635.715 137.232 C 635.486 135.729, 635.304 137.200, 635.310 140.500 M 794.175 139.050 C 794.079 141.553, 793.441 144.252, 792.757 145.050 C 792.038 145.889, 792.276 145.826, 793.322 144.899 C 794.690 143.688, 795.035 142.229, 794.740 138.899 L 794.349 134.500 794.175 139.050 M 873.982 140.702 C 873.717 143.563, 873.866 145.536, 874.314 145.088 C 874.762 144.639, 874.979 142.298, 874.796 139.886 L 874.463 135.500 873.982 140.702 M 686.214 151.050 C 686.096 157.402, 685.663 163.031, 685.250 163.557 C 684.837 164.084, 685.078 164.030, 685.784 163.437 C 686.729 162.644, 686.984 159.339, 686.748 150.930 L 686.428 139.500 686.214 151.050 M 709.142 142.547 C 704.891 147.951, 705.572 155.477, 710.731 160.103 L 713.404 162.500 710.742 159.221 C 706.256 153.695, 706.249 146.697, 710.725 141.752 C 711.597 140.788, 712.048 140, 711.728 140 C 711.407 140, 710.244 141.146, 709.142 142.547 M 499.750 143.732 C 502.087 143.943, 505.913 143.943, 508.250 143.732 C 510.587 143.522, 508.675 143.349, 504 143.349 C 499.325 143.349, 497.413 143.522, 499.750 143.732 M 494.067 145.782 C 493.965 149.263, 496.419 154.220, 499.621 156.996 L 502.500 159.493 499.607 156.293 C 498.016 154.532, 496.134 150.934, 495.425 148.296 C 494.715 145.658, 494.105 144.527, 494.067 145.782 M 601.328 155.500 C 601.333 159.350, 601.513 160.802, 601.730 158.728 C 601.946 156.653, 601.943 153.503, 601.722 151.728 C 601.501 149.952, 601.324 151.650, 601.328 155.500 M 792.405 160.233 C 791.012 161.865, 790.952 162.116, 792.182 161.167 C 793.670 160.018, 793.910 160.250, 794.272 163.184 C 794.636 166.139, 794.697 166.038, 794.840 162.250 C 794.928 159.912, 794.845 158, 794.655 158 C 794.465 158, 793.453 159.005, 792.405 160.233 M 141.500 161.055 C 140.400 161.498, 137.137 161.891, 134.250 161.930 C 127.974 162.014, 127.205 163.755, 133.250 164.193 L 137.500 164.500 134.157 166.324 C 129.300 168.973, 131.103 169.613, 136.316 167.089 C 142.530 164.081, 147.045 158.826, 141.500 161.055 M 650 162.117 C 650 163.741, 649.535 164.112, 648 163.710 C 646.353 163.280, 646.020 163.656, 646.116 165.844 C 646.190 167.537, 646.398 167.866, 646.689 166.750 C 646.941 165.787, 648.014 165, 649.073 165 C 650.462 165, 651 164.302, 651 162.500 C 651 161.125, 650.775 160, 650.500 160 C 650.225 160, 650 160.952, 650 162.117 M 540.644 163.485 C 540.282 164.428, 540.436 164.849, 541.011 164.493 C 541.627 164.112, 542 166.544, 542 170.941 C 542 174.823, 542.424 178, 542.942 178 C 544.020 178, 543.162 163.959, 542.006 162.683 C 541.599 162.233, 540.986 162.594, 540.644 163.485 M 71 168.762 C 71 170.040, 77.246 175.700, 83.039 179.672 C 92.502 186.160, 106.631 192.059, 112.407 191.932 C 115.944 191.855, 115.294 191.510, 106 188.531 C 97.426 185.783, 86.631 180.112, 80.406 175.086 C 72.141 168.413, 71 167.645, 71 168.762 M 798.489 184.018 C 797.972 184.855, 798.087 185.064, 798.816 184.614 C 799.490 184.197, 800.180 184.871, 800.537 186.292 C 801.292 189.298, 802.835 189.295, 806 186.281 L 808.500 183.900 805.500 185.439 C 802.674 186.888, 802.407 186.854, 800.893 184.853 C 799.671 183.237, 799.095 183.037, 798.489 184.018" stroke="none" fill="#d3cfcb" fill-rule="evenodd"/><path d="M 18 100 L 18 200 119 200 L 220 200 220 100 L 220 0 119 0 L 18 0 18 100 M 87.247 21.750 C 87.770 34.753, 89.093 41.248, 90.507 37.750 C 90.896 36.787, 90.955 35.325, 90.638 34.500 C 90.322 33.675, 90.499 33, 91.031 33 C 91.564 33, 92 31.677, 92 30.059 C 92 28.441, 92.468 26.829, 93.041 26.475 C 93.613 26.121, 93.808 24.970, 93.473 23.916 C 92.526 20.931, 94.268 21.672, 96.743 25.308 C 99.579 29.474, 111.696 42, 112.890 42 C 113.383 42, 114.045 42.675, 114.362 43.500 C 115.222 45.742, 114.586 45.414, 108.553 40.500 C 102.232 35.351, 98.308 34.680, 95.039 38.189 C 92.366 41.057, 92.466 42, 95.441 42 C 99.196 42, 99.415 43.751, 95.759 44.542 C 93.966 44.929, 90.377 46.316, 87.783 47.623 C 82.575 50.247, 80.974 50.626, 82.800 48.800 C 83.460 48.140, 84 47.127, 84 46.550 C 83.999 45.972, 81.635 47.975, 78.746 51 C 75.857 54.025, 70.624 58.940, 67.118 61.923 C 55.267 72.002, 48.200 84.384, 45.923 99.058 C 45.317 102.961, 45.020 106.353, 45.262 106.596 C 46.418 107.752, 51.158 98.681, 52.146 93.422 C 53.928 83.938, 55.614 79.420, 59.627 73.375 C 65.400 64.678, 82.068 51.745, 83.200 55.085 C 83.365 55.572, 85.147 55.463, 87.162 54.844 C 89.176 54.225, 91.651 54.055, 92.662 54.465 C 94.111 55.054, 93.531 55.503, 89.923 56.586 C 87.406 57.341, 84.481 58.934, 83.423 60.125 C 81.520 62.268, 81.521 62.280, 83.500 61.262 C 86.574 59.680, 94 58.661, 94 59.822 C 94 60.370, 95.934 60.790, 98.298 60.754 C 103.176 60.681, 106.723 62.626, 110.280 67.324 C 114.649 73.098, 114.491 78.921, 110.078 74.750 C 108.986 73.718, 108.957 73.893, 109.913 75.750 C 111.090 78.039, 111.468 78.222, 115 78.222 C 118.145 78.222, 118.204 78.129, 116.557 75.777 C 114.435 72.748, 114.417 70.271, 116.530 72.025 C 117.699 72.995, 118.641 73.029, 120.530 72.168 C 123.332 70.892, 123.679 71.720, 121.532 74.559 C 119.148 77.711, 119.658 78.948, 123.158 78.505 C 126.210 78.119, 128.038 76.577, 127.906 74.500 C 127.871 73.950, 127.615 74.063, 127.338 74.750 C 127.060 75.438, 126.187 76, 125.398 76 C 121.949 76, 127.340 65.973, 132.664 62.485 C 134.389 61.354, 136.733 60.930, 139.976 61.160 C 143.687 61.424, 144.632 61.197, 144.224 60.138 C 143.714 58.813, 146.339 58.978, 152.250 60.642 C 153.213 60.913, 154 60.706, 154 60.181 C 154 58.997, 147.835 56, 145.399 56 C 144.055 56, 143.887 55.713, 144.738 54.862 C 145.530 54.070, 147.030 54.008, 149.688 54.659 C 154.438 55.823, 157.330 55.302, 156.605 53.413 C 156.307 52.636, 156.185 52, 156.333 52 C 156.482 52, 161.306 56.613, 167.052 62.250 C 178.898 73.871, 183.208 80.787, 184.993 91.036 C 185.981 96.713, 191.339 107.994, 192.497 106.836 C 192.699 106.634, 192.482 103.390, 192.016 99.626 C 191.411 94.748, 189.842 90.042, 186.552 83.238 C 182.274 74.389, 180.952 72.719, 168.436 60.346 C 161.010 53.006, 154.634 47, 154.267 47 C 153.900 47, 154.140 47.540, 154.800 48.200 C 157.286 50.686, 155.851 50.798, 151.750 48.439 C 149.412 47.094, 145.813 45.527, 143.750 44.958 C 141.688 44.389, 140 43.438, 140 42.845 C 140 42.248, 140.921 42.008, 142.061 42.306 C 144.724 43.002, 145.809 40.381, 143.723 38.294 C 141.081 35.652, 135.575 35.655, 132.343 38.299 C 130.779 39.578, 127.985 41.677, 126.134 42.963 C 123.112 45.062, 122.875 45.101, 123.815 43.345 C 124.391 42.269, 126.471 40.523, 128.437 39.464 C 130.403 38.405, 132.251 36.855, 132.545 36.019 C 133.479 33.357, 144.975 21.327, 144.378 23.637 C 144.074 24.813, 144.315 26.077, 144.913 26.446 C 145.511 26.816, 146 28.018, 146 29.118 C 146 30.328, 146.438 30.847, 147.109 30.432 C 147.893 29.948, 148.014 30.957, 147.521 33.873 C 146.477 40.056, 148.660 39.017, 149.883 32.750 C 150.803 28.034, 151.888 8.998, 151.236 8.999 C 151.091 9, 148.522 10.996, 145.527 13.435 C 142.532 15.874, 137.251 19.761, 133.791 22.073 C 130.331 24.384, 126.037 27.652, 124.250 29.334 C 119.513 33.792, 120.271 30.750, 125.250 25.322 C 129.932 20.218, 127.295 20.896, 122.201 26.106 L 119.048 29.331 116.936 26.645 C 115.774 25.168, 113.401 23.228, 111.662 22.333 C 108.564 20.739, 108.585 20.799, 112.750 25.331 C 117.730 30.749, 118.485 33.783, 113.750 29.348 C 111.963 27.674, 106.928 23.873, 102.561 20.902 C 98.195 17.931, 93.070 14.038, 91.172 12.250 C 89.273 10.462, 87.498 9, 87.227 9 C 86.956 9, 86.965 14.738, 87.247 21.750 M 627.672 12.433 C 621.071 14.207, 614.993 18.710, 612 24.044 C 609.641 28.249, 609.500 29.350, 609.500 43.576 C 609.500 58.611, 609.508 58.665, 612.531 63.576 C 616.388 69.843, 623.236 73.742, 631.994 74.657 C 636.474 75.125, 639.021 75.988, 641.108 77.745 C 642.702 79.085, 643.772 80.560, 643.486 81.022 C 643.201 81.484, 643.374 82.113, 643.870 82.420 C 644.366 82.726, 645.106 81.970, 645.513 80.739 L 646.254 78.500 646.697 80.750 C 646.940 81.988, 647.608 83, 648.181 83 C 648.835 83, 648.972 81.662, 648.548 79.402 C 648.090 76.964, 648.216 76.015, 648.936 76.461 C 649.521 76.822, 650 77.487, 650 77.937 C 650 78.387, 650.685 80.395, 651.522 82.398 L 653.044 86.040 655.571 83.697 C 657.094 82.284, 658.701 79.044, 659.618 75.533 C 660.454 72.331, 662.401 68.089, 663.945 66.106 C 668.675 60.031, 670.520 51.797, 667.418 50.607 C 665.182 49.749, 648.710 49.880, 647.477 50.765 C 646.914 51.169, 645.666 52.738, 644.704 54.250 C 642.379 57.903, 635.959 58.207, 633.557 54.777 C 631.412 51.715, 631.345 34.248, 633.468 31.441 C 634.433 30.166, 634.947 29.966, 634.968 30.857 C 634.987 31.647, 635.626 31.974, 636.500 31.638 C 637.325 31.322, 638.014 31.611, 638.032 32.281 C 638.050 32.988, 638.621 32.765, 639.392 31.750 C 641.421 29.077, 643.741 29.653, 645.450 33.254 C 646.653 35.788, 648.287 37.009, 652.842 38.775 C 659.118 41.209, 659.511 41.146, 666.250 36.618 C 669.427 34.483, 669.745 31.719, 667.447 26.218 C 665.594 21.783, 661.626 17.410, 657.500 15.255 C 649.573 11.116, 636.998 9.926, 627.672 12.433 M 675.700 11.633 C 675.315 12.018, 675.014 25.871, 675.032 42.417 C 675.056 65.716, 675.361 72.891, 676.381 74.234 C 677.105 75.188, 677.965 75.701, 678.292 75.375 C 678.619 75.048, 679.841 76.811, 681.008 79.294 C 682.175 81.776, 683.942 84.542, 684.934 85.440 C 686.630 86.975, 686.843 86.847, 688.514 83.286 C 689.491 81.204, 691.582 78.014, 693.160 76.199 L 696.029 72.898 695.764 42.199 L 695.500 11.500 685.950 11.216 C 680.698 11.060, 676.086 11.248, 675.700 11.633 M 851.700 11.633 C 851.315 12.018, 851 16.492, 851 21.576 L 851 30.819 847.048 28.909 C 836.890 24.001, 824.721 29.465, 821.476 40.391 C 819.737 46.250, 819.567 55.873, 821.104 61.500 C 823.233 69.295, 829.695 75, 836.395 75 C 837.823 75, 839.674 76.041, 840.808 77.483 C 842.672 79.853, 842.899 79.897, 845.793 78.453 C 847.590 77.557, 849.275 75.650, 849.930 73.772 L 851.034 70.604 852.721 73.052 C 856.081 77.928, 861.455 80.424, 863.128 77.885 C 863.867 76.763, 864.398 76.926, 865.925 78.743 L 867.809 80.986 868.936 78.243 C 869.555 76.734, 870.611 74.572, 871.281 73.439 C 872.198 71.889, 872.376 63.955, 872 41.439 L 871.500 11.500 861.950 11.216 C 856.698 11.060, 852.086 11.248, 851.700 11.633 M 135.834 27.226 C 132.944 30.888, 132.841 31.195, 135.057 29.532 C 138.200 27.173, 141.442 23, 140.131 23 C 139.601 23, 137.668 24.902, 135.834 27.226 M 99.881 26.720 C 102.177 30.062, 103.832 31.501, 104.552 30.782 C 104.782 30.552, 103.327 28.819, 101.319 26.932 L 97.669 23.500 99.881 26.720 M 719.718 28.033 C 707.855 31.010, 702.983 37.922, 703.022 51.718 C 703.048 60.983, 705.172 66.516, 710.141 70.268 C 713.824 73.048, 719.762 74.986, 724.625 74.994 C 727.323 74.999, 727.856 75.444, 728.526 78.250 C 729.212 81.122, 729.352 81.231, 729.729 79.191 C 730.315 76.013, 734.167 76.593, 735.109 80 C 735.734 82.259, 735.821 82.163, 736.016 79 C 736.151 76.815, 736.417 76.226, 736.724 77.432 C 737.186 79.242, 737.335 79.210, 739.086 76.932 L 740.956 74.500 740.978 77.750 C 740.990 79.537, 741.450 81, 742 81 C 742.550 81, 743 79.467, 743 77.594 C 743 74.680, 743.289 74.263, 745 74.710 C 746.400 75.076, 747 74.741, 747 73.593 C 747 72.690, 748.539 69.714, 750.420 66.980 C 753.084 63.107, 753.993 60.575, 754.535 55.522 C 755.906 42.711, 752.412 34.817, 743.424 30.419 C 737.237 27.392, 726.555 26.317, 719.718 28.033 M 761.699 28.634 C 761.315 29.019, 761 36.473, 761 45.199 C 761 66.705, 763.077 71.513, 773.703 74.602 C 776.616 75.449, 779.674 76.817, 780.499 77.642 C 781.834 78.976, 782.007 78.941, 782.063 77.321 C 782.113 75.902, 782.336 76.023, 783.075 77.870 C 784.002 80.184, 784.123 80.118, 788.241 75.056 C 790.628 72.122, 792.607 70.443, 792.802 71.186 C 793.629 74.343, 795.442 76.989, 796.616 76.754 C 797.316 76.615, 798.574 77.400, 799.412 78.500 L 800.936 80.500 801.008 78.500 C 801.069 76.803, 801.306 76.917, 802.572 79.250 C 804.426 82.667, 805.773 82.751, 806.589 79.500 C 807.293 76.697, 809 76.101, 809 78.657 C 809 79.569, 810.013 78.402, 811.250 76.065 C 813.434 71.940, 813.485 71.183, 813 50.158 L 812.500 28.500 802.500 28.500 L 792.500 28.500 792 42.833 C 791.566 55.267, 791.255 57.344, 789.652 58.514 C 788.472 59.376, 787.027 59.576, 785.652 59.069 C 783.614 58.317, 783.474 57.488, 783 43.388 L 782.500 28.500 772.449 28.217 C 766.922 28.062, 762.084 28.249, 761.699 28.634 M 67.486 31.399 C 69.949 33.370, 70.453 34.484, 70.367 37.767 C 70.223 43.284, 65.623 51.322, 60.773 54.532 C 56.271 57.511, 56.294 58.933, 60.807 56.600 C 67.207 53.290, 73 43.868, 73 36.769 C 73 33.434, 69.388 28.999, 66.677 29.005 C 64.665 29.010, 64.727 29.191, 67.486 31.399 M 166.557 31.223 C 161.907 37.860, 167.278 51.929, 176.250 56.615 C 180.085 58.618, 179.683 57.612, 174.935 53.323 C 170.017 48.879, 168.417 45.962, 167.483 39.735 C 166.944 36.141, 167.162 34.401, 168.386 32.533 C 170.243 29.700, 170.376 29, 169.057 29 C 168.538 29, 167.413 30, 166.557 31.223 M 76.189 42.039 C 74.985 43.160, 74 44.301, 74 44.574 C 74 45.397, 77.573 43.220, 78.955 41.555 C 80.837 39.287, 78.750 39.652, 76.189 42.039 M 725.331 43.273 C 724.520 44.586, 724.603 56.174, 725.442 58.818 C 725.907 60.281, 726.945 61, 728.592 61 C 731.600 61, 733.006 57.860, 732.986 51.185 C 732.965 43.799, 732.286 42.333, 728.883 42.333 C 727.249 42.333, 725.651 42.756, 725.331 43.273 M 103.345 45.829 C 105.690 48.420, 105.452 48.757, 101.500 48.444 C 96.535 48.050, 96.906 50.628, 102.013 52.004 C 104.220 52.598, 107.542 54.415, 109.395 56.042 C 113.545 59.685, 116.428 60.020, 115.489 56.750 C 114.737 54.129, 104.762 44, 102.933 44 C 102.093 44, 102.226 44.592, 103.345 45.829 M 130.849 46.787 C 126.564 49.971, 123.421 54.316, 122.403 58.464 L 121.676 61.428 127.002 57.187 C 129.932 54.854, 134.227 52.468, 136.548 51.884 C 140.001 51.014, 140.674 50.471, 140.261 48.890 C 139.908 47.538, 139.401 47.252, 138.576 47.937 C 137.927 48.476, 136.389 48.653, 135.158 48.331 C 133.038 47.777, 133.009 47.647, 134.615 45.873 C 137.071 43.159, 135.081 43.642, 130.849 46.787 M 842.627 45.529 C 841.205 49.234, 841.983 55.983, 844.073 58.073 C 845.940 59.940, 846.364 60.002, 848.323 58.701 C 850.180 57.468, 850.500 56.319, 850.500 50.878 L 850.500 44.500 846.877 44.197 C 844.253 43.978, 843.082 44.345, 842.627 45.529 M 99.500 64 C 99.840 64.550, 100.748 65, 101.517 65 C 102.286 65, 104.809 66.801, 107.123 69.002 C 109.436 71.203, 111.491 72.842, 111.688 72.645 C 112.722 71.611, 110.289 68.752, 106.074 66.047 C 101.366 63.027, 98.310 62.075, 99.500 64 M 135 64.318 C 129.580 67.149, 127 69.309, 127 71.015 C 127 72.444, 127.648 72.168, 130.250 69.630 C 132.037 67.887, 134.625 65.705, 136 64.783 C 139.008 62.764, 138.461 62.510, 135 64.318 M 47.404 68.768 C 44.468 72.308, 39.656 80.618, 41.769 78.500 C 43.681 76.584, 52 66.025, 52 65.514 C 52 64.124, 50.199 65.399, 47.404 68.768 M 186.128 66.847 C 193.365 76.589, 195.247 79, 195.614 79 C 196.458 79, 192.040 71.201, 189.459 68.134 C 186.656 64.802, 183.785 63.693, 186.128 66.847 M 73.150 69.006 C 68.798 72.159, 68.178 73.010, 70.250 72.985 C 71.825 72.966, 79.894 66.089, 78.400 66.038 C 77.795 66.017, 75.433 67.353, 73.150 69.006 M 79.782 71.965 C 72.786 75.155, 65.365 78.084, 63.289 78.474 C 57.499 79.560, 57.045 80.449, 62 81 L 66.500 81.500 66.762 118.606 L 67.024 155.711 63.145 158.399 C 58.906 161.337, 54.181 166, 55.444 166 C 55.879 166, 57.656 164.753, 59.392 163.229 C 61.128 161.705, 66.212 158.552, 70.690 156.222 C 79.290 151.748, 79.935 151.708, 86.813 155.223 C 88.827 156.252, 101.176 170.094, 103.431 173.850 C 105.168 176.743, 100.045 172.939, 96.850 168.963 C 93.752 165.108, 84.086 157, 82.588 157 C 81.814 157, 86.665 163.057, 93.887 171.109 C 96.300 173.799, 97.851 176, 97.334 176 C 96.269 176, 89.138 171, 84.215 166.801 C 78.744 162.136, 78.139 163.745, 83.500 168.704 C 90.039 174.751, 98.824 180.405, 105.854 183.092 C 113.615 186.057, 129.320 186.920, 133.759 184.625 C 135.487 183.731, 139.179 182.512, 141.965 181.914 C 147.182 180.795, 156.650 175.137, 160.924 170.583 C 164.657 166.606, 162.417 167.502, 155.122 172.904 C 150.235 176.523, 147.583 177.819, 145 177.851 C 143.075 177.875, 139.928 178.368, 138.007 178.947 C 133.785 180.219, 128 180.329, 128 179.137 C 128 178.662, 130.588 177.500, 133.750 176.555 C 141.202 174.327, 145.581 172.081, 148.305 169.090 C 150.370 166.822, 150.382 166.727, 148.500 167.475 C 136.100 172.403, 128.334 173.186, 121.922 170.156 C 119.490 169.007, 116.375 167.284, 115 166.329 L 112.500 164.591 114.921 167.292 C 116.252 168.777, 117.047 170.287, 116.687 170.646 C 115.474 171.859, 104.061 158.822, 101.386 153.168 C 98.554 147.180, 97.259 137.766, 98.418 131.588 C 98.854 129.262, 100.490 126.643, 103.032 124.200 L 106.971 120.415 104.930 116.608 C 102.995 112.999, 102.981 112.735, 104.645 111.517 C 107.275 109.595, 109.206 111.304, 114.076 119.864 C 118.324 127.330, 118.352 127.355, 119.922 125.046 C 122.552 121.178, 129.068 109.616, 129.669 107.750 C 130.465 105.280, 131.850 105.578, 133.184 108.504 C 134.200 110.734, 133.512 112.620, 126.912 125.714 C 122.836 133.802, 119.031 140.556, 118.457 140.724 C 117.884 140.891, 115.640 137.389, 113.471 132.941 C 109.813 125.438, 107 121.424, 107 123.707 C 107 124.758, 117.942 146, 118.483 146 C 118.668 146, 120.617 142.513, 122.812 138.250 C 125.008 133.988, 131.348 121.764, 136.902 111.087 C 142.456 100.410, 147 90.712, 147 89.537 C 147 86.883, 145.206 85, 142.678 85 C 141.082 85, 140.967 84.745, 142 83.500 C 143.682 81.473, 146.338 81.611, 148.345 83.829 C 149.743 85.374, 150 88.198, 150 102.029 C 150 111.804, 150.364 118.017, 150.903 117.450 C 151.400 116.928, 151.965 115.617, 152.159 114.537 C 152.426 113.060, 153.392 114.051, 156.068 118.543 C 162.265 128.945, 165.199 136.108, 165.749 142.171 C 166.325 148.522, 167.466 149.708, 168.495 145.025 C 169.175 141.925, 171.009 141.416, 172.180 144 C 173.005 145.821, 173.230 159, 172.435 159 C 172.125 159, 169.627 158.035, 166.884 156.855 C 162.949 155.162, 162.066 154.371, 162.699 153.105 C 165.219 148.057, 161.994 133.013, 156.839 125.774 C 153.635 121.274, 153.662 123.106, 156.902 129.957 C 160.865 138.336, 162.915 149.513, 160.866 151.563 C 158.814 153.615, 153.198 151.637, 152.434 148.592 C 152.129 147.378, 152.033 140.668, 152.221 133.682 C 152.448 125.257, 152.215 121.094, 151.531 121.322 C 150.906 121.529, 150.391 127.230, 150.223 135.821 L 149.945 149.977 146.880 151.562 C 143.092 153.521, 143.608 154.381, 147.712 152.950 C 150.403 152.012, 152.103 152.487, 162.625 157.112 C 169.156 159.983, 176.040 163.464, 177.921 164.847 C 181.349 167.368, 181.319 166.303, 177.852 162.437 C 176.310 160.717, 175.944 158.306, 175.652 147.937 C 175.248 133.629, 174.712 131.759, 165.470 112.399 C 161.979 105.087, 158.648 97.393, 158.067 95.302 C 154.887 83.849, 159.066 75.856, 165.777 80.557 C 168.344 82.355, 168.664 85.204, 166.500 87 C 163.636 89.377, 164.734 93.113, 169.639 97.680 C 172.190 100.056, 174.665 102, 175.139 102 C 175.612 102, 176 98.467, 176 94.148 C 176 81.894, 173.587 79.382, 153 70.205 C 142.358 65.461, 138.968 64.784, 143.328 68.273 L 146.157 70.537 135.976 90.518 C 125.374 111.327, 119.082 123, 118.468 123 C 118.062 123, 111.167 110.062, 99.036 86.534 L 90.804 70.568 93.652 68.289 C 98.599 64.330, 93.643 65.644, 79.782 71.965 M 157 66.288 C 157 66.901, 168.679 75, 169.564 75 C 170.603 75, 167.017 71.148, 164 69.023 C 161.487 67.253, 157 65.500, 157 66.288 M 81.574 85.754 C 80.514 88.364, 79.238 90.776, 78.737 91.113 C 78.226 91.457, 77.811 104.401, 77.791 120.613 L 77.757 149.500 84.192 152.639 C 89.164 155.065, 92.470 157.793, 98.735 164.639 C 103.194 169.513, 108.341 174.367, 110.171 175.427 L 113.500 177.354 109.449 172.915 C 101.366 164.058, 92.983 150.008, 93.092 145.500 C 93.120 144.351, 93.750 145.202, 94.572 147.500 C 96.499 152.885, 98.171 156, 99.133 156 C 99.571 156, 99.011 153.863, 97.890 151.250 C 96.769 148.637, 95.474 143.148, 95.014 139.052 C 94.199 131.807, 94.257 131.487, 97.136 127.302 C 98.764 124.936, 100.412 122.986, 100.798 122.968 C 102.517 122.890, 105.428 119.879, 104.431 119.211 C 103.578 118.639, 95.467 103.632, 85.265 83.750 C 84.489 82.237, 83.774 81.002, 83.677 81.004 C 83.580 81.006, 82.633 83.143, 81.574 85.754 M 842 83.441 C 842 84.784, 842.450 86.160, 843 86.500 C 843.583 86.861, 844 85.844, 844 84.059 C 844 82.377, 843.550 81, 843 81 C 842.450 81, 842 82.098, 842 83.441 M 53.427 98.151 C 51.938 101.093, 49.095 105.349, 47.108 107.609 C 37.209 118.870, 36.981 136.483, 46.592 147.500 L 49.209 150.500 47.410 147.500 C 42.137 138.708, 40.699 131.176, 43.147 125.176 C 44.478 121.912, 44.500 121.968, 44.529 128.680 C 44.552 134.051, 45.179 136.859, 47.481 141.895 C 50.874 149.319, 52.043 148.721, 49.038 141.098 C 44.676 130.031, 46.419 123.247, 57.511 108.102 C 61.155 103.127, 60.725 100.879, 56.881 104.810 C 55.166 106.565, 53.411 108, 52.982 108 C 52.552 108, 53.311 104.806, 54.669 100.902 C 56.027 96.998, 56.912 93.578, 56.636 93.303 C 56.360 93.027, 54.916 95.208, 53.427 98.151 M 182 96.417 C 182 97.196, 182.900 99.934, 184 102.500 C 185.100 105.066, 186 107.354, 186 107.583 C 186 108.746, 183.947 107.723, 181.855 105.517 C 180.560 104.152, 179.162 103.027, 178.750 103.017 C 176.989 102.977, 178.390 105.916, 183.031 112 C 189.252 120.156, 191.434 126.368, 190.719 133.888 C 190.426 136.975, 189.882 140.400, 189.511 141.500 C 188.856 143.444, 188.880 143.447, 190.377 141.615 C 192.283 139.284, 193.317 132.791, 192.852 126.078 C 192.402 119.581, 193.455 119.560, 195.008 126.035 C 196.342 131.595, 195.656 138.831, 193.378 143.237 C 192.592 144.757, 192.210 146, 192.530 146 C 192.849 146, 194.266 143.477, 195.678 140.393 C 200.269 130.364, 197.881 115.629, 190.256 106.945 C 188.588 105.045, 186.228 101.580, 185.011 99.245 C 182.666 94.746, 182 94.121, 182 96.417 M 516.281 101.002 C 510.197 101.902, 502.967 105.834, 500.169 109.763 C 494.129 118.245, 495.884 130.028, 504.037 135.738 C 505.117 136.495, 506 137.736, 506 138.498 C 506 140.512, 507.874 141.350, 509.451 140.041 C 510.505 139.166, 511.846 139.638, 515.379 142.128 C 519.417 144.974, 520.242 145.211, 522.519 144.173 C 526.115 142.535, 531 142.662, 531 144.393 C 531 147.380, 521.929 148.040, 518.066 145.334 C 516.166 144.003, 513.658 143.712, 505.618 143.892 C 500.081 144.015, 495.373 144.294, 495.155 144.512 C 494.002 145.665, 496.504 152.504, 499.205 155.580 C 503.439 160.403, 508.551 162.801, 517.592 164.207 C 524.847 165.335, 525.341 165.581, 527.624 169.197 C 528.945 171.288, 530.662 173, 531.440 173 C 532.218 173, 534.008 171.537, 535.416 169.750 C 536.958 167.794, 537.993 167.097, 538.015 168 C 538.036 168.825, 538.887 167.700, 539.906 165.500 C 542.032 160.913, 542.750 161.761, 543.290 169.500 L 543.640 174.500 543.853 168.500 C 544.026 163.636, 544.623 161.743, 547.005 158.500 C 548.621 156.300, 550.645 153.544, 551.504 152.376 C 554.269 148.614, 554.556 140.779, 552.113 135.733 C 549.226 129.770, 543.350 126.642, 531.017 124.503 C 520.550 122.687, 518.264 121.592, 520.163 119.303 C 521.651 117.511, 525.683 118.386, 528.636 121.141 C 530.292 122.687, 531.549 122.988, 534.244 122.482 C 536.153 122.124, 540.458 121.756, 543.809 121.665 C 551.327 121.461, 552.622 120.415, 551.092 115.780 C 549.629 111.346, 543.666 105.600, 538 103.164 C 532.621 100.851, 523.462 99.939, 516.281 101.002 M 567.250 100.662 C 566.399 101.006, 566 103.674, 566 109.026 L 566 116.885 561.750 117.193 L 557.500 117.500 557.201 123.808 C 556.867 130.840, 560.650 148.750, 562.151 147.249 C 562.638 146.762, 563.585 143.470, 564.257 139.932 L 565.477 133.500 565.995 142.500 C 566.778 156.111, 571.342 161.780, 582.908 163.505 C 586.292 164.010, 588.239 165.021, 590.307 167.345 C 592.164 169.432, 593.294 170.075, 593.643 169.244 C 593.933 168.553, 594.582 168.242, 595.085 168.553 C 595.588 168.864, 596 168.116, 596 166.892 C 596 165.668, 596.301 164.968, 596.669 165.336 C 597.037 165.703, 598.162 165.259, 599.169 164.347 C 600.626 163.028, 601 161.195, 601 155.364 C 601 147.147, 601.160 147.301, 592 146.764 L 587.500 146.500 587.201 139.624 C 586.939 133.591, 587.104 132.826, 588.544 133.379 C 589.447 133.725, 591.269 134.280, 592.593 134.613 C 593.917 134.945, 595 135.641, 595 136.160 C 595 136.679, 596.143 135.870, 597.540 134.362 C 599.837 131.884, 600.052 130.946, 599.790 124.561 L 599.500 117.500 593 117.212 L 586.500 116.925 586.834 109.916 C 587.283 100.494, 586.751 99.981, 576.628 100.079 C 572.157 100.122, 567.938 100.385, 567.250 100.662 M 153.992 106.510 C 152.933 107.785, 152.938 108.516, 154.018 110.534 C 154.744 111.890, 155.712 113, 156.169 113 C 156.626 113, 157.014 113.563, 157.032 114.250 C 157.049 114.938, 157.771 116.400, 158.635 117.500 C 160.161 119.442, 160.185 119.427, 159.467 117 C 159.059 115.625, 157.650 113.212, 156.334 111.638 C 154.445 109.379, 154.188 108.479, 155.113 107.364 C 155.758 106.587, 156.060 105.727, 155.785 105.452 C 155.510 105.177, 154.703 105.653, 153.992 106.510 M 69.659 124.188 C 69.303 128.760, 69.009 137.338, 69.006 143.250 C 69 154.557, 69.443 155.494, 73.384 152.510 C 75.113 151.201, 75.252 149.701, 75.071 134.344 C 74.873 117.550, 74.500 114.624, 72.875 117.143 C 72.157 118.256, 71.848 118.264, 71.153 117.188 C 70.632 116.381, 70.057 119.073, 69.659 124.188 M 626 116.636 C 616.585 118.426, 610.699 122.249, 607.913 128.384 C 605.609 133.457, 605.296 147.419, 607.377 152.282 C 610.141 158.743, 616.896 163.123, 626.250 164.518 C 629.988 165.076, 631 165.629, 631 167.114 C 631 168.151, 631.450 169, 632 169 C 632.550 169, 633 168.365, 633 167.588 C 633 166.783, 633.752 166.321, 634.750 166.512 C 635.712 166.696, 636.808 166.881, 637.184 166.923 C 637.560 166.966, 638.055 168.238, 638.284 169.750 C 638.646 172.140, 638.722 172.042, 638.865 169 C 638.989 166.378, 639.268 165.875, 639.976 166.995 C 640.787 168.278, 641.135 168.207, 642.429 166.495 C 643.873 164.584, 643.938 164.636, 643.968 167.750 C 643.986 169.537, 644.450 171, 645 171 C 645.550 171, 646 169.242, 646 167.094 C 646 163.680, 646.252 163.253, 648 163.710 C 649.506 164.104, 650 163.741, 650 162.239 C 650 161.142, 650.708 159.657, 651.573 158.939 C 654.438 156.562, 656.911 150.324, 657.581 143.789 C 658.815 131.739, 654.134 122.451, 644.881 118.592 C 641.014 116.979, 630.127 115.852, 626 116.636 M 726.326 116.988 C 724.031 117.473, 720.881 118.534, 719.326 119.346 C 713.580 122.346, 708.058 130.505, 711.181 131.379 C 719.937 133.830, 722.681 134.031, 726.361 132.494 C 728.443 131.624, 731.014 131.187, 732.073 131.523 C 733.154 131.866, 734 131.666, 734 131.067 C 734 130.480, 734.483 130, 735.073 130 C 735.664 130, 736 130.763, 735.820 131.697 C 735.574 132.971, 733.290 133.827, 726.637 135.136 C 716.197 137.191, 710.539 140.466, 708.340 145.728 C 705.198 153.248, 710.181 161.709, 719.060 163.932 C 725.430 165.527, 726.390 166.264, 727.426 170.348 C 728.628 175.087, 729.589 174.974, 730.384 170 C 730.740 167.771, 731.585 166, 732.293 166 C 732.990 166, 734.118 164.537, 734.798 162.750 L 736.034 159.500 738.601 164 C 741.988 169.938, 741.758 169.836, 744.362 166.571 L 746.635 163.720 748.703 166.349 L 750.771 168.978 752.295 166.739 L 753.820 164.500 754.846 167 C 755.411 168.375, 755.938 169.275, 756.018 169 C 757.641 163.390, 758.373 135.098, 757.025 130.091 C 755.605 124.819, 751.925 120.587, 747.070 118.645 C 742.110 116.660, 731.784 115.836, 726.326 116.988 M 777 117.116 C 766.787 120.143, 761.491 134.151, 765.117 148.549 C 766.627 154.545, 772.648 161.241, 778.176 163.070 L 782.500 164.500 774.203 164.791 C 764.782 165.122, 763.897 165.874, 766.493 171.345 C 769.308 177.275, 779.296 182.863, 787.250 182.956 C 789.601 182.984, 791.734 183.734, 792.968 184.968 C 794.803 186.803, 795.004 186.820, 795.938 185.218 C 796.489 184.273, 796.953 183.893, 796.970 184.372 C 796.986 184.852, 797.644 184.711, 798.430 184.058 C 799.572 183.111, 800.074 183.270, 800.917 184.845 C 802.303 187.435, 805.599 186.599, 807.731 183.117 C 808.612 181.677, 810.945 178.084, 812.916 175.131 L 816.500 169.762 816.827 144.827 C 817.068 126.486, 816.838 119.509, 815.955 118.446 C 815.084 117.397, 812.472 117, 806.434 117 C 799.120 117, 797.936 117.254, 796.646 119.096 L 795.178 121.191 792.339 119.103 C 788.941 116.605, 781.832 115.683, 777 117.116 M 841.718 117.092 C 830.871 119.646, 825.211 125.978, 823.679 137.274 C 822.400 146.708, 826.083 156.117, 832.835 160.668 C 835.601 162.532, 844.767 165.236, 848.576 165.312 C 849.167 165.324, 851.305 167.807, 853.326 170.830 C 855.347 173.854, 857 175.819, 857 175.199 C 857 174.578, 858.288 172.591, 859.861 170.785 C 861.435 168.978, 863.433 166.113, 864.300 164.418 C 865.168 162.722, 867.480 159.417, 869.439 157.073 C 871.398 154.729, 873 151.953, 873 150.905 C 873 149.194, 872.161 148.990, 864.750 148.897 L 856.500 148.795 864.174 147.503 C 868.395 146.793, 872.332 145.913, 872.924 145.547 C 873.516 145.181, 874 142.823, 874 140.307 C 874 123.394, 859.434 112.920, 841.718 117.092 M 53.687 124.183 C 51.659 128.343, 50.034 132.590, 50.076 133.623 C 50.128 134.908, 50.525 134.554, 51.334 132.500 C 51.984 130.850, 53.776 127.102, 55.315 124.171 C 56.854 121.240, 57.947 118.342, 57.744 117.731 C 57.540 117.120, 55.714 120.024, 53.687 124.183 M 179.571 119 C 180.317 121.764, 186.222 132.112, 186.751 131.582 C 187.285 131.048, 182.386 120.695, 180.560 118.500 C 178.930 116.540, 178.910 116.550, 179.571 119 M 665.510 117.984 C 665.150 118.566, 664.904 128.800, 664.962 140.728 C 665.060 160.927, 665.202 162.540, 667.034 164.246 C 668.115 165.254, 669 166.735, 669 167.539 C 669 168.343, 669.450 169, 670 169 C 670.550 169, 671.007 168.213, 671.015 167.250 C 671.027 165.910, 671.229 165.812, 671.876 166.834 C 672.541 167.883, 672.870 167.782, 673.415 166.362 C 674.004 164.827, 674.247 164.777, 675.038 166.028 C 675.854 167.317, 675.972 167.313, 675.988 166 C 675.999 165.175, 676.947 166.041, 678.096 167.925 L 680.184 171.351 683.092 166.678 C 685.818 162.299, 686 161.353, 686 151.585 C 686 145.853, 686.273 140.452, 686.607 139.582 C 687.326 137.709, 689.993 137.449, 690.015 139.250 C 690.026 140.083, 690.354 140, 691 139 C 691.805 137.755, 691.978 137.839, 692.018 139.500 C 692.064 141.416, 692.146 141.405, 693.944 139.250 C 696.269 136.463, 699.016 136.343, 699.710 139 C 700.297 141.245, 702 141.732, 702 139.655 C 702 138.915, 702.900 137.495, 704 136.500 C 705.671 134.988, 706 133.420, 706 126.967 C 706 121.283, 705.599 118.912, 704.482 117.985 C 702.388 116.247, 693.714 117.381, 689.333 119.966 C 685.080 122.475, 685.207 122.481, 684.820 119.750 C 684.518 117.628, 683.977 117.484, 675.332 117.214 C 669.660 117.036, 665.914 117.330, 665.510 117.984 M 846.021 130.960 C 844.530 133.746, 845.494 135, 849.125 135 C 851.816 135, 852.100 134.711, 851.816 132.250 C 851.410 128.722, 847.665 127.888, 846.021 130.960 M 628.342 132.550 C 628.105 133.170, 628.043 137.237, 628.205 141.588 C 628.496 149.392, 628.537 149.504, 631.250 149.816 C 633.443 150.069, 634.201 149.601, 635 147.501 C 636.150 144.474, 636.214 136.404, 635.108 133.584 C 634.276 131.461, 629.066 130.665, 628.342 132.550 M 787.200 134.200 C 785.727 135.673, 785.630 141.441, 787.035 144.066 C 788.192 146.228, 791.963 146.637, 793.800 144.800 C 795.062 143.538, 795.426 137.273, 794.393 134.582 C 793.676 132.713, 788.938 132.462, 787.200 134.200 M 731.500 145.724 C 726.524 146.947, 726.068 151, 730.907 151 C 734.025 151, 736 149.371, 736 146.800 C 736 144.995, 735.221 144.809, 731.500 145.724 M 845 147.309 C 845 148.029, 845.649 149.491, 846.441 150.559 C 847.573 152.083, 848.258 152.270, 849.632 151.429 C 852.510 149.665, 852.276 148.292, 848.896 147.114 C 844.927 145.730, 845 145.726, 845 147.309 M 791.169 161.456 C 789.337 163.405, 787.354 165, 786.764 165 C 786.173 165, 786.505 165.900, 787.500 167 C 791.346 171.250, 795.400 168.150, 794.808 161.413 L 794.500 157.911 791.169 161.456 M 141.500 161.055 C 140.400 161.498, 137.137 161.891, 134.250 161.930 C 127.974 162.014, 127.205 163.755, 133.250 164.193 L 137.500 164.500 134.157 166.324 C 129.300 168.973, 131.103 169.613, 136.316 167.089 C 142.530 164.081, 147.045 158.826, 141.500 161.055 M 71 168.762 C 71 170.040, 77.246 175.700, 83.039 179.672 C 92.502 186.160, 106.631 192.059, 112.407 191.932 C 115.944 191.855, 115.294 191.510, 106 188.531 C 97.426 185.783, 86.631 180.112, 80.406 175.086 C 72.141 168.413, 71 167.645, 71 168.762" stroke="none" fill="#444444" fill-rule="evenodd"/></svg>